<svg width="593" height="438" viewBox="0 0 593 438" fill="none" xmlns="http://www.w3.org/2000/svg">
<path opacity="0.4" d="M311.535 152.823C311.569 152.926 311.696 152.962 311.82 152.902L312.232 152.704L312.537 152.902C312.628 152.962 312.774 152.926 312.864 152.823L317.328 155.735C317.238 155.838 317.239 155.97 317.33 156.03L318.129 156.551C318.22 156.611 318.367 156.575 318.456 156.472L322.92 159.384C322.83 159.487 322.832 159.619 322.923 159.679L323.722 160.2C323.813 160.261 323.959 160.224 324.049 160.121L328.513 163.033C328.423 163.137 328.424 163.268 328.515 163.328L329.314 163.849C329.405 163.91 329.552 163.873 329.641 163.77L334.105 166.682C334.015 166.786 334.017 166.918 334.108 166.977L334.907 167.498C334.998 167.559 335.144 167.522 335.234 167.419L339.698 170.331C339.608 170.435 339.609 170.567 339.7 170.626L340.499 171.147C340.59 171.208 340.737 171.171 340.826 171.068L345.29 173.98C345.2 174.084 345.202 174.216 345.293 174.275L346.092 174.796C346.183 174.857 346.329 174.82 346.419 174.718L350.883 177.629C350.793 177.733 350.794 177.865 350.885 177.924L351.684 178.446C351.775 178.506 351.922 178.469 352.011 178.367L356.475 181.278C356.385 181.382 356.386 181.514 356.478 181.574L356.781 181.772L356.674 182.168C356.642 182.288 356.716 182.384 356.84 182.384L355.262 188.208C355.139 188.208 355.012 188.304 354.979 188.424L354.697 189.466C354.664 189.586 354.739 189.683 354.862 189.683L353.284 195.506C353.161 195.506 353.034 195.602 353.002 195.722L352.719 196.765C352.687 196.885 352.762 196.981 352.885 196.981L351.307 202.804C351.184 202.804 351.057 202.901 351.024 203.021L350.742 204.063C350.709 204.183 350.784 204.279 350.907 204.279L349.33 210.103C349.206 210.103 349.079 210.199 349.047 210.319L348.764 211.361C348.732 211.481 348.807 211.577 348.93 211.577L347.352 217.401C347.229 217.401 347.102 217.497 347.069 217.617L346.787 218.659C346.755 218.779 346.829 218.876 346.953 218.876L345.375 224.699C345.251 224.699 345.125 224.795 345.092 224.915L344.81 225.958C344.777 226.078 344.852 226.174 344.975 226.174L343.397 231.997C343.274 231.997 343.147 232.094 343.115 232.214L342.832 233.256C342.8 233.376 342.874 233.472 342.998 233.472L341.42 239.296C341.297 239.296 341.17 239.392 341.137 239.512L341.03 239.908L340.619 240.106C340.495 240.166 340.422 240.298 340.456 240.402L334.414 243.313C334.381 243.211 334.254 243.174 334.13 243.234L333.049 243.756C332.925 243.815 332.852 243.947 332.886 244.051L326.844 246.963C326.811 246.86 326.684 246.823 326.56 246.884L325.479 247.405C325.355 247.464 325.283 247.596 325.316 247.7L319.274 250.612C319.241 250.509 319.114 250.472 318.99 250.533L317.909 251.054C317.785 251.113 317.713 251.245 317.746 251.349L311.705 254.261C311.671 254.158 311.544 254.121 311.42 254.182L310.339 254.703C310.215 254.762 310.143 254.894 310.176 254.998L304.135 257.91C304.101 257.807 303.974 257.77 303.85 257.831L302.769 258.352C302.646 258.412 302.573 258.543 302.606 258.647L296.565 261.559C296.531 261.456 296.404 261.42 296.28 261.48L295.199 262.001C295.076 262.061 295.003 262.193 295.036 262.296L288.995 265.208C288.961 265.105 288.834 265.069 288.71 265.129L287.629 265.65C287.506 265.71 287.433 265.842 287.466 265.946L281.425 268.857C281.391 268.755 281.264 268.718 281.141 268.778L280.728 268.976L280.424 268.778C280.332 268.718 280.186 268.755 280.096 268.857L275.633 265.946C275.722 265.842 275.721 265.71 275.63 265.65L274.831 265.129C274.74 265.069 274.593 265.105 274.504 265.208L270.04 262.296C270.13 262.193 270.129 262.061 270.037 262.001L269.239 261.48C269.147 261.42 269.001 261.456 268.911 261.559L264.448 258.647C264.537 258.543 264.536 258.412 264.445 258.352L263.646 257.831C263.555 257.77 263.408 257.807 263.319 257.91L258.855 254.998C258.945 254.894 258.944 254.762 258.852 254.703L258.054 254.182C257.962 254.121 257.816 254.158 257.726 254.261L253.263 251.349C253.352 251.245 253.351 251.113 253.26 251.054L252.461 250.533C252.37 250.472 252.223 250.509 252.134 250.612L247.67 247.7C247.76 247.596 247.759 247.464 247.667 247.405L246.869 246.884C246.777 246.823 246.631 246.86 246.541 246.963L242.078 244.051C242.167 243.947 242.166 243.815 242.075 243.756L241.276 243.234C241.185 243.174 241.038 243.211 240.949 243.313L236.485 240.402C236.575 240.298 236.574 240.166 236.482 240.106L236.179 239.908L236.286 239.512C236.319 239.392 236.244 239.296 236.121 239.296L237.698 233.472C237.822 233.472 237.949 233.376 237.981 233.256L238.263 232.214C238.296 232.094 238.221 231.997 238.098 231.997L239.676 226.174C239.799 226.174 239.926 226.078 239.958 225.958L240.241 224.915C240.273 224.795 240.199 224.699 240.075 224.699L241.653 218.876C241.776 218.876 241.903 218.779 241.936 218.659L242.218 217.617C242.251 217.497 242.176 217.401 242.053 217.401L243.631 211.577C243.754 211.577 243.881 211.481 243.913 211.361L244.196 210.319C244.228 210.199 244.154 210.103 244.03 210.103L245.608 204.279C245.731 204.279 245.858 204.183 245.891 204.063L246.173 203.021C246.206 202.901 246.131 202.804 246.008 202.804L247.586 196.981C247.709 196.981 247.836 196.885 247.868 196.765L248.151 195.722C248.183 195.602 248.108 195.506 247.985 195.506L249.563 189.683C249.686 189.683 249.813 189.586 249.846 189.466L250.128 188.424C250.16 188.304 250.086 188.208 249.963 188.208L251.54 182.384C251.664 182.384 251.79 182.288 251.823 182.168L251.93 181.772L252.341 181.574C252.465 181.514 252.538 181.382 252.504 181.278L258.546 178.367C258.58 178.469 258.706 178.506 258.83 178.446L259.911 177.924C260.035 177.865 260.108 177.733 260.074 177.629L266.116 174.718C266.15 174.82 266.276 174.857 266.4 174.796L267.481 174.275C267.605 174.216 267.678 174.084 267.644 173.98L273.686 171.068C273.719 171.171 273.846 171.208 273.97 171.147L275.051 170.626C275.175 170.567 275.248 170.435 275.214 170.331L281.256 167.419C281.289 167.522 281.416 167.559 281.54 167.498L282.621 166.977C282.745 166.918 282.817 166.786 282.784 166.682L288.826 163.77C288.859 163.873 288.986 163.91 289.11 163.849L290.191 163.328C290.315 163.268 290.387 163.137 290.354 163.033L296.395 160.121C296.429 160.224 296.556 160.261 296.68 160.2L297.761 159.679C297.885 159.619 297.957 159.487 297.924 159.384L303.965 156.472C303.999 156.575 304.126 156.611 304.25 156.551L305.331 156.03C305.454 155.97 305.527 155.838 305.494 155.735L311.535 152.823Z" stroke="#4642F4" stroke-width="2" stroke-linecap="round" stroke-linejoin="round" stroke-dasharray="1 6"/>
<path d="M341.698 41.4589C341.731 41.5627 341.858 41.5989 341.981 41.5399L342.406 41.3372L342.72 41.5399C342.812 41.5989 342.958 41.5627 343.047 41.4589L347.62 44.4082C347.531 44.5119 347.533 44.644 347.625 44.703L348.442 45.2302C348.533 45.2892 348.68 45.2529 348.768 45.1491L353.342 48.0984C353.252 48.2022 353.254 48.3342 353.346 48.3932L354.163 48.9204C354.255 48.9794 354.401 48.9432 354.49 48.8394L359.063 51.7886C358.973 51.8925 358.976 52.0245 359.067 52.0835L359.885 52.6107C359.976 52.6698 360.123 52.6334 360.211 52.5296L364.785 55.4789C364.695 55.5827 364.697 55.7147 364.789 55.7737L365.606 56.3009C365.697 56.36 365.844 56.3237 365.933 56.2198L370.506 59.1691C370.416 59.2729 370.419 59.405 370.51 59.464L371.327 59.9911C371.419 60.0503 371.565 60.0139 371.654 59.9101L376.227 62.8594C376.138 62.9632 376.14 63.0952 376.231 63.1542L377.049 63.6814C377.14 63.7405 377.287 63.7042 377.375 63.6004L381.949 66.5496C381.859 66.6534 381.861 66.7854 381.953 66.8446L382.77 67.3717C382.862 67.4307 383.008 67.3945 383.097 67.2907L387.67 70.2399C387.58 70.3437 387.583 70.4757 387.674 70.5348L388.491 71.062C388.583 71.121 388.729 71.0847 388.818 70.9809L393.391 73.9301C393.302 74.0339 393.304 74.1659 393.396 74.225L394.213 74.7522C394.304 74.8112 394.451 74.775 394.539 74.6712L399.113 77.6204C399.023 77.7242 399.025 77.8563 399.117 77.9153L399.934 78.4425C400.026 78.5015 400.172 78.4652 400.261 78.3614L404.834 81.3106C404.744 81.4144 404.747 81.5465 404.838 81.6055L405.655 82.1327C405.747 82.1917 405.894 82.1555 405.982 82.0517L410.556 85.0009C410.466 85.1048 410.468 85.2368 410.56 85.2958L411.377 85.8229C411.468 85.882 411.615 85.8457 411.704 85.7419L416.277 88.6912C416.187 88.795 416.19 88.927 416.281 88.986L417.098 89.5132C417.19 89.5723 417.336 89.536 417.425 89.4321L421.998 92.3815C421.909 92.4853 421.911 92.6172 422.002 92.6766L422.82 93.2032C422.911 93.2627 423.058 93.2259 423.146 93.1221L427.72 96.0717C427.63 96.1755 427.632 96.3074 427.724 96.3669L428.541 96.8934C428.633 96.9529 428.779 96.9161 428.868 96.8123L433.441 99.7619C433.351 99.8657 433.354 99.9976 433.445 100.057L434.262 100.584C434.354 100.643 434.501 100.606 434.589 100.503L439.162 103.452C439.073 103.556 439.075 103.688 439.167 103.747L439.984 104.274C440.075 104.333 440.222 104.297 440.311 104.193L444.884 107.142C444.794 107.246 444.796 107.378 444.888 107.437L445.705 107.964C445.797 108.023 445.943 107.987 446.032 107.883L450.605 110.833C450.516 110.936 450.518 111.068 450.609 111.128L451.427 111.654C451.518 111.714 451.664 111.678 451.753 111.574L456.327 114.523C456.237 114.627 456.239 114.758 456.331 114.818L457.148 115.344C457.239 115.404 457.386 115.368 457.474 115.264L462.048 118.213C461.958 118.317 461.961 118.449 462.052 118.508L462.869 119.036C462.961 119.094 463.107 119.058 463.196 118.955L467.769 121.903C467.68 122.007 467.682 122.139 467.773 122.198L468.59 122.726C468.682 122.784 468.829 122.749 468.917 122.645L473.491 125.593C473.401 125.697 473.403 125.829 473.495 125.888L473.807 126.09L473.691 126.516C473.659 126.635 473.733 126.732 473.857 126.732L472.182 132.913C472.059 132.913 471.932 133.009 471.899 133.129L471.601 134.231C471.568 134.351 471.643 134.447 471.766 134.447L470.091 140.629C469.968 140.629 469.841 140.726 469.809 140.845L469.51 141.948C469.478 142.067 469.552 142.163 469.676 142.163L468.001 148.344C467.878 148.344 467.75 148.442 467.718 148.561L467.419 149.663C467.387 149.782 467.462 149.88 467.585 149.88L465.91 156.061C465.787 156.061 465.66 156.157 465.627 156.277L465.329 157.379C465.296 157.499 465.371 157.595 465.494 157.595L463.82 163.777C463.696 163.777 463.569 163.874 463.537 163.993L463.238 165.096C463.206 165.215 463.28 165.312 463.404 165.312L461.729 171.492C461.606 171.492 461.479 171.59 461.446 171.708L461.148 172.811C461.115 172.93 461.19 173.028 461.313 173.028L459.638 179.209C459.515 179.209 459.388 179.305 459.356 179.425L459.057 180.527C459.025 180.647 459.099 180.743 459.223 180.743L457.548 186.924C457.425 186.924 457.297 187.022 457.265 187.141L456.966 188.244C456.934 188.363 457.009 188.46 457.132 188.46L455.457 194.641C455.334 194.641 455.207 194.737 455.174 194.857L454.876 195.959C454.844 196.078 454.918 196.175 455.041 196.175L453.367 202.357C453.243 202.357 453.116 202.453 453.084 202.573L452.785 203.675C452.753 203.795 452.828 203.891 452.951 203.891L451.276 210.072C451.153 210.072 451.026 210.17 450.993 210.289L450.695 211.391C450.662 211.51 450.737 211.608 450.86 211.608L449.185 217.789C449.062 217.789 448.935 217.885 448.903 218.005L448.604 219.107C448.572 219.227 448.646 219.323 448.77 219.323L447.095 225.505C446.972 225.505 446.844 225.602 446.812 225.721L446.514 226.823C446.481 226.943 446.556 227.039 446.679 227.039L445.004 233.22C444.881 233.22 444.754 233.318 444.722 233.436L444.423 234.539C444.391 234.658 444.465 234.756 444.588 234.756L442.913 240.937C442.79 240.937 442.663 241.033 442.631 241.153L442.332 242.255C442.3 242.375 442.375 242.471 442.498 242.471L440.823 248.652C440.7 248.652 440.573 248.75 440.54 248.869L440.242 249.972C440.209 250.09 440.284 250.188 440.407 250.188L438.732 256.368C438.609 256.368 438.482 256.465 438.45 256.584L438.151 257.687C438.119 257.806 438.193 257.903 438.316 257.903L436.642 264.085C436.518 264.085 436.392 264.181 436.359 264.301L436.061 265.403C436.028 265.523 436.103 265.619 436.226 265.619L434.551 271.8C434.428 271.8 434.301 271.898 434.269 272.017L433.97 273.119C433.938 273.238 434.012 273.336 434.135 273.336L432.46 279.517C432.337 279.517 432.21 279.613 432.178 279.733L431.879 280.835C431.847 280.954 431.921 281.051 432.045 281.051L430.37 287.233C430.247 287.233 430.12 287.329 430.087 287.449L429.789 288.551C429.756 288.671 429.831 288.767 429.954 288.767L428.279 294.948C428.156 294.948 428.029 295.045 427.997 295.164L427.881 295.59L427.461 295.792C427.337 295.851 427.263 295.983 427.297 296.087L421.125 299.035C421.093 298.931 420.966 298.896 420.842 298.954L419.739 299.482C419.616 299.541 419.542 299.673 419.576 299.777L413.404 302.725C413.372 302.622 413.245 302.586 413.121 302.644L412.018 303.172C411.895 303.231 411.821 303.363 411.854 303.467L405.683 306.416C405.651 306.312 405.524 306.276 405.4 306.336L404.297 306.862C404.174 306.922 404.1 307.054 404.133 307.157L397.962 310.107C397.929 310.003 397.803 309.966 397.679 310.026L396.576 310.552C396.453 310.612 396.379 310.744 396.412 310.848L390.241 313.797C390.208 313.693 390.082 313.657 389.958 313.716L388.855 314.243C388.732 314.302 388.658 314.434 388.691 314.538L382.52 317.487C382.487 317.383 382.36 317.347 382.237 317.406L381.134 317.933C381.01 317.992 380.937 318.124 380.97 318.228L374.798 321.178C374.766 321.074 374.639 321.037 374.516 321.096L373.413 321.623C373.289 321.682 373.216 321.814 373.249 321.918L367.077 324.868C367.045 324.764 366.918 324.727 366.795 324.787L365.692 325.313C365.568 325.373 365.495 325.505 365.528 325.608L359.356 328.558C359.324 328.454 359.197 328.417 359.074 328.477L357.971 329.003C357.847 329.063 357.773 329.195 357.807 329.299L351.635 332.248C351.603 332.144 351.476 332.108 351.353 332.167L350.25 332.694C350.126 332.753 350.052 332.885 350.086 332.989L343.914 335.938C343.882 335.835 343.755 335.798 343.631 335.857L342.529 336.384C342.405 336.443 342.331 336.575 342.365 336.679L336.193 339.629C336.161 339.525 336.034 339.488 335.91 339.547L334.808 340.074C334.684 340.133 334.61 340.265 334.644 340.369L328.472 343.319C328.44 343.215 328.313 343.178 328.189 343.238L327.086 343.765C326.963 343.824 326.889 343.956 326.923 344.059L320.751 347.009C320.719 346.905 320.592 346.868 320.468 346.928L319.365 347.455C319.242 347.514 319.168 347.646 319.202 347.75L313.03 350.699C312.998 350.595 312.871 350.559 312.747 350.618L311.644 351.146C311.521 351.204 311.447 351.336 311.481 351.44L305.309 354.389C305.277 354.286 305.15 354.249 305.026 354.308L303.923 354.836C303.8 354.894 303.726 355.026 303.759 355.13L297.588 358.08C297.555 357.976 297.429 357.939 297.305 357.998L296.202 358.526C296.079 358.584 296.005 358.716 296.038 358.82L289.867 361.77C289.834 361.666 289.707 361.63 289.584 361.689L288.481 362.216C288.358 362.275 288.284 362.407 288.317 362.51L282.146 365.46C282.113 365.356 281.986 365.32 281.863 365.379L280.76 365.907C280.637 365.965 280.563 366.097 280.596 366.202L274.425 369.15C274.392 369.046 274.265 369.011 274.142 369.069L273.039 369.597C272.916 369.655 272.841 369.788 272.875 369.892L266.704 372.84C266.671 372.737 266.544 372.701 266.421 372.759L265.318 373.287C265.194 373.345 265.12 373.478 265.154 373.582L258.982 376.531C258.95 376.427 258.823 376.391 258.7 376.45L257.597 376.977C257.473 377.037 257.399 377.168 257.433 377.272L251.261 380.221C251.229 380.117 251.102 380.081 250.979 380.14L250.554 380.343L250.239 380.14C250.148 380.081 250.001 380.117 249.913 380.221L245.339 377.272C245.429 377.168 245.426 377.037 245.335 376.977L244.518 376.45C244.426 376.391 244.28 376.427 244.191 376.531L239.618 373.582C239.707 373.478 239.705 373.345 239.614 373.287L238.797 372.759C238.705 372.701 238.558 372.737 238.47 372.84L233.896 369.892C233.986 369.788 233.984 369.655 233.892 369.597L233.075 369.069C232.983 369.011 232.837 369.046 232.748 369.15L228.175 366.202C228.265 366.098 228.263 365.965 228.171 365.907L227.354 365.379C227.262 365.32 227.116 365.356 227.027 365.46L222.454 362.51C222.544 362.407 222.541 362.275 222.449 362.216L221.632 361.689C221.541 361.63 221.394 361.666 221.306 361.77L216.732 358.82C216.822 358.716 216.82 358.584 216.728 358.526L215.911 357.998C215.82 357.939 215.673 357.976 215.584 358.08L211.011 355.13C211.101 355.026 211.098 354.894 211.007 354.836L210.19 354.308C210.098 354.249 209.952 354.286 209.863 354.389L205.29 351.44C205.379 351.336 205.377 351.204 205.285 351.146L204.468 350.618C204.377 350.559 204.23 350.595 204.142 350.699L199.568 347.75C199.658 347.646 199.656 347.514 199.564 347.455L198.747 346.928C198.655 346.868 198.509 346.905 198.42 347.009L193.847 344.059C193.937 343.956 193.934 343.824 193.842 343.765L193.025 343.238C192.934 343.178 192.787 343.215 192.699 343.319L188.125 340.369C188.215 340.265 188.213 340.133 188.121 340.074L187.304 339.547C187.213 339.488 187.066 339.525 186.977 339.629L182.404 336.679C182.494 336.575 182.491 336.443 182.4 336.384L181.583 335.857C181.491 335.798 181.345 335.835 181.256 335.938L176.683 332.989C176.772 332.885 176.77 332.753 176.679 332.694L175.861 332.167C175.77 332.108 175.623 332.144 175.535 332.248L170.961 329.299C171.051 329.195 171.049 329.063 170.957 329.003L170.14 328.477C170.048 328.417 169.902 328.454 169.813 328.558L165.24 325.608C165.33 325.505 165.327 325.373 165.236 325.313L164.419 324.787C164.327 324.727 164.18 324.764 164.092 324.868L159.519 321.918C159.608 321.814 159.606 321.682 159.514 321.623L158.697 321.096C158.606 321.037 158.459 321.074 158.37 321.178L153.797 318.228C153.887 318.124 153.885 317.992 153.793 317.933L152.976 317.406C152.884 317.347 152.738 317.383 152.649 317.487L148.076 314.538C148.165 314.434 148.163 314.302 148.072 314.243L147.254 313.716C147.163 313.657 147.016 313.693 146.928 313.797L142.355 310.848C142.444 310.744 142.442 310.612 142.351 310.552L141.533 310.026C141.442 309.966 141.295 310.003 141.206 310.107L136.633 307.157C136.723 307.054 136.721 306.922 136.629 306.862L135.812 306.336C135.72 306.276 135.574 306.312 135.485 306.416L130.912 303.467C131.001 303.363 131 303.231 130.908 303.172L130.091 302.644C129.999 302.586 129.853 302.622 129.763 302.725L125.191 299.777C125.28 299.673 125.278 299.541 125.187 299.482L124.369 298.954C124.278 298.896 124.131 298.931 124.042 299.035L119.469 296.087C119.559 295.983 119.557 295.851 119.465 295.792L119.153 295.59L119.268 295.164C119.301 295.045 119.227 294.948 119.103 294.948L120.778 288.767C120.901 288.767 121.028 288.671 121.06 288.551L121.359 287.449C121.391 287.329 121.317 287.233 121.193 287.233L122.868 281.051C122.992 281.051 123.119 280.954 123.151 280.835L123.449 279.733C123.482 279.613 123.408 279.517 123.284 279.517L124.959 273.336C125.082 273.336 125.209 273.238 125.241 273.119L125.54 272.017C125.572 271.898 125.498 271.8 125.375 271.8L127.049 265.619C127.173 265.619 127.3 265.523 127.332 265.403L127.631 264.301C127.663 264.181 127.589 264.085 127.465 264.085L129.14 257.903C129.264 257.903 129.39 257.806 129.423 257.687L129.721 256.584C129.754 256.465 129.68 256.368 129.556 256.368L131.23 250.188C131.354 250.188 131.481 250.09 131.513 249.972L131.812 248.869C131.844 248.75 131.77 248.652 131.646 248.652L133.321 242.471C133.445 242.471 133.571 242.375 133.604 242.255L133.902 241.153C133.935 241.033 133.861 240.937 133.737 240.937L135.412 234.756C135.536 234.756 135.662 234.658 135.694 234.539L135.993 233.436C136.025 233.318 135.952 233.22 135.828 233.22L137.503 227.039C137.626 227.039 137.753 226.943 137.785 226.823L138.084 225.721C138.116 225.602 138.042 225.505 137.918 225.505L139.593 219.323C139.717 219.323 139.843 219.227 139.876 219.107L140.174 218.005C140.207 217.885 140.133 217.789 140.009 217.789L141.684 211.608C141.807 211.608 141.934 211.51 141.966 211.391L142.265 210.289C142.297 210.17 142.223 210.072 142.1 210.072L143.774 203.891C143.898 203.891 144.024 203.795 144.057 203.675L144.355 202.573C144.388 202.453 144.314 202.357 144.19 202.357L145.865 196.175C145.989 196.175 146.115 196.078 146.147 195.959L146.446 194.857C146.479 194.737 146.404 194.641 146.281 194.641L147.955 188.46C148.079 188.46 148.206 188.363 148.238 188.244L148.537 187.141C148.569 187.022 148.495 186.924 148.371 186.924L150.046 180.743C150.17 180.743 150.296 180.647 150.329 180.527L150.627 179.425C150.66 179.305 150.586 179.209 150.462 179.209L152.137 173.028C152.26 173.028 152.387 172.93 152.419 172.811L152.718 171.708C152.75 171.59 152.676 171.492 152.553 171.492L154.227 165.312C154.351 165.312 154.478 165.215 154.51 165.096L154.809 163.993C154.841 163.874 154.767 163.777 154.643 163.777L156.318 157.595C156.442 157.595 156.568 157.499 156.601 157.379L156.899 156.277C156.932 156.157 156.857 156.061 156.734 156.061L158.408 149.88C158.532 149.88 158.659 149.782 158.691 149.663L158.99 148.561C159.022 148.442 158.948 148.344 158.824 148.344L160.499 142.163C160.623 142.163 160.749 142.067 160.782 141.947L161.08 140.845C161.113 140.726 161.039 140.629 160.915 140.629L162.59 134.447C162.713 134.447 162.84 134.351 162.872 134.231L163.171 133.129C163.203 133.009 163.129 132.913 163.005 132.913L164.68 126.732C164.804 126.732 164.931 126.635 164.963 126.516L165.078 126.09L165.499 125.888C165.623 125.829 165.697 125.697 165.663 125.593L171.834 122.645C171.867 122.749 171.994 122.784 172.117 122.726L173.221 122.198C173.344 122.139 173.418 122.007 173.385 121.903L179.555 118.955C179.588 119.058 179.715 119.094 179.839 119.036L180.942 118.508C181.065 118.449 181.139 118.317 181.106 118.213L187.276 115.264C187.309 115.368 187.436 115.404 187.56 115.346L188.663 114.818C188.786 114.758 188.86 114.627 188.827 114.523L194.997 111.574C195.03 111.678 195.157 111.714 195.281 111.654L196.384 111.128C196.508 111.068 196.581 110.936 196.548 110.833L202.719 107.883C202.751 107.987 202.878 108.023 203.002 107.964L204.104 107.437C204.228 107.378 204.302 107.246 204.268 107.142L210.44 104.193C210.472 104.297 210.599 104.333 210.723 104.274L211.825 103.747C211.949 103.688 212.023 103.556 211.989 103.452L218.161 100.503C218.193 100.606 218.32 100.643 218.444 100.584L219.547 100.057C219.67 99.9976 219.744 99.8657 219.711 99.7619L225.882 96.8123C225.915 96.9161 226.041 96.9529 226.165 96.8934L227.268 96.3669C227.391 96.3074 227.465 96.1755 227.432 96.0717L233.603 93.1221C233.636 93.2259 233.762 93.2627 233.886 93.2032L234.989 92.6766C235.112 92.6172 235.186 92.4853 235.153 92.3815L241.324 89.4321C241.357 89.536 241.483 89.5723 241.607 89.5132L242.71 88.986C242.833 88.927 242.907 88.795 242.874 88.6912L249.045 85.7419C249.078 85.8457 249.205 85.882 249.328 85.823L250.431 85.2958C250.554 85.2368 250.628 85.1048 250.595 85.0009L256.766 82.0517C256.799 82.1555 256.926 82.1917 257.049 82.1327L258.152 81.6055C258.276 81.5465 258.349 81.4144 258.316 81.3106L264.487 78.3614C264.52 78.4652 264.647 78.5015 264.77 78.4425L265.873 77.9153C265.997 77.8563 266.07 77.7242 266.037 77.6204L272.209 74.6712C272.241 74.775 272.368 74.8112 272.491 74.7522L273.594 74.225C273.718 74.1659 273.792 74.0339 273.758 73.9301L279.93 70.9809C279.962 71.0847 280.089 71.121 280.212 71.062L281.315 70.5348C281.439 70.4757 281.513 70.3437 281.479 70.2399L287.651 67.2907C287.683 67.3945 287.81 67.4308 287.933 67.3717L289.036 66.8446C289.16 66.7854 289.234 66.6534 289.2 66.5496L295.372 63.6004C295.404 63.7043 295.531 63.7405 295.655 63.6814L296.757 63.1542C296.881 63.0952 296.955 62.9632 296.921 62.8594L303.093 59.9101C303.125 60.0139 303.252 60.0503 303.376 59.9911L304.478 59.464C304.602 59.405 304.676 59.273 304.642 59.1691L310.814 56.2199C310.846 56.3237 310.973 56.36 311.097 56.3009L312.2 55.7737C312.323 55.7147 312.397 55.5827 312.363 55.4789L318.535 52.5296C318.567 52.6334 318.694 52.6698 318.818 52.6107L319.921 52.0835C320.044 52.0245 320.118 51.8925 320.085 51.7887L326.256 48.8394C326.289 48.9432 326.415 48.9794 326.539 48.9204L327.642 48.3932C327.765 48.3342 327.839 48.2022 327.806 48.0984L333.977 45.1491C334.01 45.2529 334.136 45.2892 334.26 45.2302L335.363 44.703C335.486 44.644 335.56 44.5119 335.527 44.4082L341.698 41.4589Z" stroke="#4642F4" stroke-width="2" stroke-linecap="round" stroke-linejoin="round" stroke-dasharray="1 6"/>
<path opacity="0.6" d="M72.9992 210.84C105.277 91.7105 231.499 -4.86328 354.924 -4.86328C478.349 -4.86328 552.238 91.7105 519.961 210.84C487.683 329.97 361.462 426.544 238.036 426.544C114.611 426.544 40.7216 329.97 72.9992 210.84Z" stroke="#4642F4" stroke-width="2"/>
<path opacity="0.6" d="M531.499 210.84C565.443 85.5598 487.738 -16 357.941 -16C228.144 -16 95.4051 85.5598 61.461 210.84C27.517 336.12 105.222 437.68 235.019 437.68C364.816 437.68 497.555 336.12 531.499 210.84Z" stroke="#4642F4" stroke-width="2"/>
<path opacity="0.6" d="M355.07 -5.40405L238.183 426.003" stroke="#4642F4" stroke-width="2"/>
<path opacity="0.3" d="M311.886 151.914C311.967 151.615 312.283 151.373 312.592 151.373C312.901 151.373 313.087 151.615 313.006 151.914C312.925 152.212 312.608 152.454 312.299 152.454C311.99 152.454 311.805 152.212 311.886 151.914Z" fill="#4642F4"/>
<path opacity="0.3" d="M251.594 182.188C251.285 182.188 251.099 181.945 251.18 181.647C251.261 181.349 251.578 181.106 251.887 181.106C252.196 181.106 252.381 181.349 252.3 181.647C252.22 181.945 251.903 182.188 251.594 182.188Z" fill="#4642F4"/>
<path opacity="0.3" d="M235.774 240.573C235.465 240.573 235.28 240.331 235.361 240.033C235.441 239.734 235.758 239.492 236.067 239.492C236.376 239.492 236.562 239.734 236.481 240.033C236.4 240.331 236.083 240.573 235.774 240.573Z" fill="#4642F4"/>
<path opacity="0.3" d="M297.6 210.84C297.762 210.243 297.392 209.759 296.773 209.759C296.154 209.759 295.522 210.243 295.36 210.84C295.198 211.437 295.569 211.921 296.187 211.921C296.806 211.921 297.439 211.437 297.6 210.84Z" fill="#4642F4"/>
<path opacity="0.3" d="M280.1 269.226C280.181 268.927 280.498 268.685 280.807 268.685C281.116 268.685 281.301 268.927 281.221 269.226C281.14 269.524 280.823 269.767 280.514 269.767C280.205 269.767 280.02 269.524 280.1 269.226Z" fill="#4642F4"/>
<path opacity="0.3" d="M356.893 182.188C356.583 182.188 356.398 181.945 356.479 181.647C356.56 181.349 356.876 181.106 357.185 181.106C357.495 181.106 357.68 181.349 357.599 181.647C357.518 181.945 357.202 182.188 356.893 182.188Z" fill="#4642F4"/>
<path opacity="0.3" d="M341.007 240.658C340.673 240.658 340.474 240.396 340.561 240.075C340.648 239.753 340.989 239.492 341.323 239.492C341.656 239.492 341.856 239.753 341.768 240.075C341.681 240.396 341.341 240.658 341.007 240.658Z" fill="#4642F4"/>
<path opacity="0.3" d="M398.419 210.84H514.92" stroke="#4642F4" stroke-width="2"/>
<path opacity="0.3" d="M266.013 323.287L239.354 421.678" stroke="#4642F4" stroke-width="2"/>
<path opacity="0.3" d="M192.558 290.352L101.626 359.925" stroke="#4642F4" stroke-width="2"/>
<path opacity="0.3" d="M357.316 290.352L410.547 359.925" stroke="#4642F4" stroke-width="2"/>
<path opacity="0.3" d="M194.541 210.84H78.0401" stroke="#4642F4" stroke-width="2"/>
<path opacity="0.3" d="M326.947 98.393L353.606 0.00195312" stroke="#4642F4" stroke-width="2"/>
<path opacity="0.3" d="M400.402 131.328L491.334 61.7551" stroke="#4642F4" stroke-width="2"/>
<path opacity="0.5" d="M235.644 131.328L182.413 61.7551" stroke="#4642F4" stroke-width="2"/>
<path opacity="0.3" d="M407.941 210.84C424.039 151.424 387.187 103.259 325.629 103.259C264.071 103.259 201.118 151.424 185.02 210.84C168.922 270.256 205.774 318.421 267.332 318.421C328.889 318.421 391.842 270.256 407.941 210.84Z" stroke="#4642F4" stroke-width="2"/>
<path opacity="0.3" d="M419.142 210.84C436.858 145.453 396.302 92.4465 328.558 92.4465C260.813 92.4465 191.534 145.453 173.817 210.84C156.101 276.227 196.657 329.234 264.402 329.234C332.146 329.234 401.426 276.227 419.142 210.84Z" stroke="#4642F4" stroke-width="2"/>
<path opacity="0.3" d="M179.277 58.3878L72.439 210.84L96.6649 363.292L238.183 426.003L413.683 363.292L520.521 210.84L496.295 58.3878L354.777 -4.323L179.277 58.3878Z" stroke="#4642F4" stroke-width="2"/>
</svg>
