<svg width="534" height="405" viewBox="0 0 534 405" fill="none" xmlns="http://www.w3.org/2000/svg">
<g clip-path="url(#clip0_1_1084)">
<path opacity="0.44" d="M67.079 202.235C96.7644 96.1281 210.148 10.1118 320.329 10.1118C430.51 10.1118 495.764 96.1281 466.079 202.235C436.394 308.341 323.01 394.357 212.829 394.357C102.648 394.357 37.3936 308.341 67.079 202.235Z" stroke="url(#paint0_linear_1_1084)"/>
<path opacity="0.3" d="M476.379 202.235C507.597 90.6499 438.974 0.192627 323.104 0.192627C207.235 0.192627 87.997 90.6499 56.779 202.235C25.561 313.819 94.1845 404.276 210.054 404.276C325.923 404.276 445.161 313.819 476.379 202.235Z" stroke="url(#paint1_linear_1_1084)" stroke-width="0.4"/>
<path opacity="0.9" d="M366.079 202.234C380.885 149.314 348.339 106.414 293.387 106.414C238.434 106.414 181.885 149.314 167.079 202.234C152.274 255.155 184.819 298.055 239.771 298.055C294.724 298.055 351.274 255.155 366.079 202.234Z" stroke="#FF8AED"/>
<path opacity="0.2" d="M376.079 202.235C392.372 143.996 356.556 96.7837 296.081 96.7837C235.606 96.7837 173.372 143.996 157.079 202.235C140.786 260.473 176.602 307.685 237.077 307.685C297.552 307.685 359.786 260.473 376.079 202.235Z" stroke="#FF8AED"/>
<path d="M280.628 150.232C280.702 149.966 280.987 149.75 281.263 149.75C281.539 149.75 281.702 149.966 281.628 150.232C281.554 150.497 281.269 150.713 280.993 150.713C280.717 150.713 280.554 150.497 280.628 150.232Z" fill="#FF8AED"/>
<path d="M212.444 202.716C212.168 202.716 212.005 202.501 212.079 202.235C212.153 201.969 212.438 201.753 212.714 201.753C212.99 201.753 213.153 201.969 213.079 202.235C213.005 202.501 212.72 202.716 212.444 202.716Z" fill="#FF8AED"/>
<path d="M251.53 254.238C251.604 253.972 251.889 253.756 252.165 253.756C252.441 253.756 252.604 253.972 252.53 254.238C252.456 254.504 252.171 254.719 251.895 254.719C251.619 254.719 251.456 254.504 251.53 254.238Z" fill="#FF8AED"/>
<path d="M320.444 202.716C320.168 202.716 320.005 202.501 320.079 202.235C320.153 201.969 320.438 201.753 320.714 201.753C320.99 201.753 321.153 201.969 321.079 202.235C321.005 202.501 320.72 202.716 320.444 202.716Z" fill="#FF8AED"/>
<path d="M314.57 14.1015L320.011 9.97414L320.113 10.1104L320.388 9.90259L320.546 10.1104L320.725 9.97424L323.856 14.1015L323.677 14.2377L324.198 14.9256L324.377 14.7893L327.509 18.9166L327.33 19.0528L327.851 19.7407L328.03 19.6045L331.162 23.7317L330.983 23.8679L331.504 24.5558L331.683 24.4196L334.815 28.5469L334.635 28.6831L335.157 29.3708L335.336 29.2347L338.467 33.3619L338.288 33.4982L338.81 34.186L338.989 34.0498L342.12 38.177L341.941 38.3133L342.463 39.0011L342.642 38.8649L345.773 42.9921L345.594 43.1284L346.116 43.8162L346.295 43.68L349.426 47.8072L349.247 47.9435L349.769 48.6313L349.948 48.4951L353.079 52.6223L352.9 52.7585L353.421 53.4464L353.601 53.3102L356.732 57.4374L356.552 57.5736L357.074 58.2615L357.253 58.1253L360.385 62.2525L360.205 62.3887L360.727 63.0766L360.906 62.9404L364.038 67.0676L363.858 67.2038L364.38 67.8917L364.559 67.7555L367.69 71.8828L367.51 72.0189L368.033 72.7068L368.212 72.5706L371.343 76.6979L371.163 76.834L371.686 77.5219L371.865 77.3858L374.996 81.513L374.816 81.6491L375.339 82.337L375.518 82.2009L378.649 86.3281L378.469 86.4643L378.992 87.1521L379.171 87.016L382.302 91.1432L382.122 91.2794L382.644 91.9672L382.824 91.8311L385.955 95.9583L385.775 96.0945L386.297 96.7827L386.476 96.646L389.608 100.774L389.428 100.909L389.95 101.598L390.129 101.461L393.261 105.589L393.081 105.724L393.603 106.413L393.782 106.276L396.913 110.404L396.734 110.54L397.256 111.228L397.435 111.091L400.566 115.219L400.386 115.355L400.909 116.043L401.088 115.906L404.219 120.034L404.039 120.17L404.562 120.858L404.741 120.722L407.872 124.849L407.692 124.985L408.215 125.673L408.394 125.537L411.525 129.664L411.345 129.8L411.867 130.488L412.047 130.352L415.178 134.479L414.998 134.615L415.52 135.304L415.7 135.167L418.831 139.294L418.651 139.43L419.173 140.119L419.352 139.982L422.484 144.109L422.304 144.245L422.826 144.934L423.005 144.797L426.137 148.925L425.957 149.06L426.479 149.749L426.658 149.612L429.789 153.74L429.609 153.875L430.132 154.564L430.311 154.427L433.442 158.555L433.262 158.691L433.785 159.379L433.964 159.242L437.095 163.37L436.915 163.506L437.438 164.194L437.617 164.057L440.748 168.185L440.568 168.321L441.09 169.009L441.27 168.873L444.401 173L444.221 173.136L444.743 173.824L444.923 173.688L448.054 177.815L447.874 177.951L448.396 178.64L448.575 178.503L451.707 182.63L451.527 182.766L452.049 183.455L452.228 183.318L455.36 187.445L455.18 187.581L455.702 188.27L455.881 188.133L459.012 192.261L458.832 192.396L459.355 193.085L459.534 192.948L462.665 197.076L462.485 197.211L463.008 197.9L463.187 197.763L466.318 201.891L466.138 202.027L466.296 202.235L466.022 202.443L466.126 202.578L460.685 206.706L460.582 206.57L459.675 207.258L459.779 207.393L454.338 211.521L454.235 211.385L453.328 212.073L453.432 212.209L447.991 216.336L447.888 216.2L446.98 216.888L447.084 217.024L441.644 221.151L441.541 221.015L440.633 221.703L440.737 221.839L435.297 225.966L435.194 225.831L434.286 226.518L434.39 226.654L428.949 230.781L428.846 230.646L427.939 231.333L428.043 231.469L422.602 235.597L422.499 235.461L421.592 236.148L421.696 236.284L416.255 240.412L416.152 240.276L415.245 240.963L415.349 241.099L409.908 245.227L409.805 245.091L408.898 245.779L409.002 245.914L403.561 250.042L403.458 249.905L402.551 250.594L402.655 250.729L397.214 254.857L397.111 254.72L396.204 255.409L396.308 255.545L390.867 259.672L390.764 259.535L389.856 260.224L389.96 260.36L384.52 264.487L384.417 264.35L383.509 265.039L383.613 265.175L378.173 269.302L378.07 269.166L377.162 269.854L377.266 269.99L371.825 274.117L371.723 273.981L370.815 274.669L370.919 274.805L365.478 278.933L365.376 278.796L364.468 279.484L364.572 279.62L359.131 283.748L359.028 283.611L358.121 284.299L358.225 284.435L352.784 288.563L352.681 288.426L351.774 289.115L351.878 289.25L346.437 293.378L346.334 293.241L345.427 293.93L345.531 294.065L340.09 298.193L339.987 298.056L339.079 298.745L339.183 298.881L333.743 303.008L333.64 302.871L332.732 303.56L332.836 303.696L327.396 307.823L327.293 307.686L326.385 308.375L326.489 308.511L321.048 312.638L320.946 312.502L320.038 313.19L320.142 313.326L314.701 317.453L314.599 317.317L313.691 318.005L313.795 318.141L308.354 322.268L308.251 322.132L307.344 322.82L307.448 322.956L302.007 327.084L301.904 326.947L300.997 327.635L301.101 327.771L295.66 331.899L295.557 331.762L294.65 332.451L294.754 332.586L289.313 336.714L289.21 336.577L288.302 337.266L288.406 337.401L282.966 341.529L282.863 341.392L281.955 342.081L282.059 342.216L276.619 346.344L276.516 346.207L275.608 346.896L275.712 347.032L270.271 351.159L270.169 351.022L269.261 351.711L269.365 351.847L263.924 355.974L263.822 355.837L262.914 356.526L263.018 356.662L257.577 360.789L257.474 360.653L256.567 361.341L256.671 361.477L251.23 365.604L251.127 365.468L250.22 366.156L250.324 366.292L244.883 370.42L244.78 370.283L243.873 370.971L243.977 371.107L238.536 375.235L238.433 375.098L237.525 375.786L237.63 375.922L232.189 380.05L232.086 379.913L231.178 380.602L231.282 380.737L225.842 384.865L225.739 384.728L224.831 385.417L224.935 385.552L219.495 389.68L219.392 389.543L218.484 390.232L218.588 390.368L213.147 394.495L213.045 394.358L212.77 394.566L212.613 394.358L212.433 394.495L209.302 390.368L209.481 390.232L208.96 389.543L208.781 389.68L205.649 385.552L205.828 385.417L205.307 384.728L205.128 384.865L201.996 380.737L202.175 380.602L201.654 379.913L201.475 380.05L198.343 375.922L198.522 375.786L198.001 375.098L197.822 375.235L194.691 371.107L194.87 370.971L194.348 370.283L194.169 370.42L191.038 366.292L191.217 366.156L190.695 365.468L190.516 365.604L187.385 361.477L187.564 361.341L187.042 360.653L186.863 360.789L183.732 356.662L183.911 356.526L183.39 355.837L183.21 355.974L180.079 351.847L180.258 351.711L179.737 351.022L179.557 351.159L176.426 347.032L176.606 346.896L176.084 346.207L175.905 346.344L172.773 342.216L172.953 342.081L172.431 341.392L172.252 341.529L169.12 337.401L169.3 337.266L168.778 336.577L168.599 336.714L165.468 332.586L165.648 332.451L165.125 331.762L164.946 331.899L161.815 327.771L161.995 327.635L161.472 326.947L161.293 327.084L158.162 322.956L158.342 322.82L157.819 322.132L157.64 322.268L154.509 318.141L154.689 318.005L154.167 317.317L153.987 317.453L150.856 313.326L151.036 313.19L150.514 312.502L150.334 312.638L147.203 308.511L147.383 308.375L146.861 307.686L146.682 307.823L143.55 303.696L143.73 303.56L143.208 302.871L143.029 303.008L139.897 298.881L140.077 298.745L139.555 298.056L139.376 298.193L136.245 294.065L136.425 293.93L135.902 293.241L135.723 293.378L132.592 289.25L132.772 289.115L132.25 288.426L132.07 288.563L128.939 284.435L129.118 284.299L128.597 283.611L128.417 283.748L125.286 279.62L125.465 279.484L124.944 278.796L124.764 278.933L121.633 274.805L121.813 274.669L121.291 273.981L121.111 274.117L117.98 269.99L118.16 269.854L117.638 269.166L117.458 269.302L114.327 265.175L114.507 265.039L113.985 264.35L113.806 264.487L110.674 260.36L110.854 260.224L110.332 259.535L110.153 259.672L107.022 255.545L107.201 255.409L106.679 254.72L106.5 254.857L103.369 250.729L103.548 250.594L103.027 249.905L102.847 250.042L99.7159 245.914L99.8953 245.779L99.3737 245.09L99.194 245.227L96.063 241.099L96.2425 240.963L95.7208 240.275L95.5411 240.412L92.4101 236.284L92.5896 236.148L92.0679 235.46L91.8883 235.597L88.7572 231.469L88.9367 231.333L88.415 230.645L88.2354 230.781L85.1043 226.654L85.2838 226.518L84.7622 225.83L84.5825 225.966L81.4515 221.839L81.6309 221.703L81.1093 221.014L80.9296 221.151L77.7986 217.024L77.9781 216.888L77.4564 216.199L77.2767 216.336L74.1457 212.209L74.3252 212.073L73.8035 211.384L73.6239 211.521L70.4928 207.393L70.6723 207.258L70.1506 206.569L69.971 206.706L66.8399 202.578L67.0194 202.443L66.8618 202.235L67.1358 202.027L67.0324 201.891L72.4729 197.763L72.5764 197.899L73.483 197.211L73.3795 197.076L78.82 192.948L78.9235 193.084L79.8302 192.396L79.7266 192.261L85.1671 188.133L85.2706 188.269L86.1773 187.581L86.0738 187.445L91.5143 183.318L91.6177 183.454L92.5243 182.766L92.4209 182.63L97.8613 178.503L97.9649 178.639L98.8714 177.951L98.768 177.815L104.208 173.688L104.312 173.824L105.219 173.136L105.115 173L110.556 168.873L110.659 169.008L111.566 168.321L111.462 168.185L116.903 164.057L117.006 164.193L117.913 163.506L117.809 163.37L123.25 159.242L123.353 159.378L124.26 158.691L124.156 158.555L129.597 154.427L129.7 154.564L130.607 153.875L130.504 153.74L135.944 149.612L136.047 149.749L136.954 149.06L136.851 148.925L142.291 144.797L142.394 144.934L143.301 144.245L143.198 144.109L148.638 139.982L148.741 140.119L149.648 139.43L149.545 139.294L154.985 135.167L155.089 135.304L155.996 134.615L155.892 134.479L161.333 130.352L161.436 130.488L162.343 129.8L162.239 129.664L167.68 125.537L167.783 125.673L168.69 124.985L168.586 124.849L174.027 120.722L174.13 120.858L175.037 120.17L174.933 120.034L180.374 115.906L180.477 116.043L181.384 115.355L181.28 115.219L186.721 111.091L186.824 111.228L187.732 110.54L187.627 110.404L193.068 106.276L193.171 106.413L194.079 105.724L193.975 105.589L199.415 101.461L199.518 101.598L200.426 100.909L200.322 100.774L205.762 96.646L205.865 96.7827L206.773 96.0945L206.669 95.9583L212.11 91.831L212.212 91.9672L213.12 91.2794L213.016 91.1432L218.457 87.0159L218.56 87.1521L219.467 86.4643L219.363 86.3281L224.804 82.2008L224.907 82.337L225.814 81.6491L225.71 81.513L231.151 77.3857L231.254 77.5219L232.161 76.834L232.057 76.6979L237.498 72.5705L237.601 72.7068L238.508 72.0189L238.404 71.8828L243.845 67.7554L243.948 67.8917L244.855 67.2038L244.752 67.0676L250.192 62.9403L250.295 63.0766L251.203 62.3887L251.099 62.2525L256.539 58.1252L256.642 58.2615L257.55 57.5736L257.446 57.4374L262.887 53.3101L262.989 53.4464L263.897 52.7585L263.793 52.6223L269.234 48.495L269.337 48.6313L270.244 47.9434L270.14 47.8072L275.581 43.6799L275.684 43.8162L276.591 43.1283L276.487 42.9921L281.928 38.8648L282.031 39.0011L282.938 38.3132L282.834 38.177L288.275 34.0497L288.378 34.186L289.285 33.4981L289.181 33.3619L294.622 29.2346L294.725 29.3708L295.632 28.683L295.529 28.5468L300.969 24.4195L301.072 24.5557L301.98 23.8678L301.876 23.7317L307.316 19.6044L307.419 19.7406L308.327 19.0527L308.223 18.9166L313.664 14.7892L313.766 14.9255L314.674 14.2376L314.57 14.1015Z" stroke="#FF8AED" stroke-width="0.4" stroke-dasharray="1 6"/>
<path d="M161.491 72.3659L163.124 66.5292H163.324L163.406 66.2353H163.711L163.765 66.0427H169.826L169.772 66.2354L170.782 66.2353L170.836 66.0428H176.897L176.843 66.2353H177.853L177.907 66.0427H183.968L183.914 66.2353L184.924 66.2354L184.978 66.0427L191.039 66.0428L190.985 66.2353H191.995L192.049 66.0427H198.11L198.056 66.2353H199.066L199.12 66.0427H205.181L205.127 66.2354H206.137L206.191 66.0427L212.252 66.0428L212.198 66.2353H213.208L213.262 66.0427H219.323L219.269 66.2353H220.279L220.333 66.0427H226.394L226.34 66.2353L227.35 66.2354L227.404 66.0427L233.465 66.0428L233.411 66.2354L234.421 66.2353L234.475 66.0428L240.536 66.0427L240.482 66.2353H241.492L241.546 66.0427H247.607L247.553 66.2353L248.564 66.2354L248.618 66.0427H254.678L254.624 66.2353H255.635L255.689 66.0427H261.75L261.696 66.2354L262.706 66.2353L262.76 66.0427L268.821 66.0428L268.767 66.2354L269.777 66.2353L269.831 66.0427L275.892 66.0428L275.838 66.2354L276.848 66.2353L276.902 66.0427H282.963L282.909 66.2353L283.919 66.2354L283.973 66.0427H290.034L289.98 66.2354H290.99L291.044 66.0428H297.105L297.051 66.2354H298.061L298.115 66.0428L304.176 66.0427L304.122 66.2353H305.132L305.186 66.0427H311.247L311.193 66.2353H312.203L312.257 66.0427H318.318L318.264 66.2353H319.274L319.328 66.0427H325.389L325.335 66.2353H326.345L326.399 66.0427H332.46L332.406 66.2353H333.416L333.47 66.0427H339.531L339.477 66.2353H340.487L340.541 66.0427H346.602L346.548 66.2353H347.558L347.612 66.0427H353.673L353.619 66.2353H354.629L354.683 66.0427H360.744L360.69 66.2353H361.701L361.755 66.0427H367.815L367.761 66.2353H368.772L368.826 66.0427H374.887L374.833 66.2353H375.843L375.897 66.0427H381.958L381.904 66.2353H382.914L382.968 66.0427H389.029L388.975 66.2353H389.985L390.039 66.0427H396.1L396.046 66.2353H397.056L397.11 66.0427H403.171L403.117 66.2353H404.127L404.181 66.0427H410.242L410.188 66.2353H411.198L411.252 66.0427H417.313L417.259 66.2353H418.269L418.323 66.0427H424.384L424.33 66.2353H425.34L425.394 66.0427H431.455L431.401 66.2353H432.411L432.465 66.0427H438.526L438.472 66.2353H439.482L439.536 66.0427H445.597L445.543 66.2353H445.848L445.766 66.5292H445.966L444.333 72.3661H444.133L443.861 73.3389H444.061L442.428 79.1756H442.228L441.956 80.1485H442.156L440.523 85.9853H440.323L440.051 86.9581H440.251L438.618 92.7949H438.418L438.146 93.7676H438.346L436.713 99.6044H436.513L436.241 100.577H436.441L434.808 106.414H434.608L434.336 107.387H434.536L432.903 113.223H432.703L432.43 114.196H432.631L430.998 120.033H430.798L430.525 121.006H430.725L429.092 126.843H428.892L428.62 127.815H428.82L427.187 133.652H426.987L426.715 134.625H426.915L425.282 140.462H425.082L424.81 141.435H425.01L423.377 147.271H423.177L422.905 148.245H423.105L421.472 154.082H421.272L421 155.054H421.2L419.567 160.891H419.367L419.095 161.864H419.295L417.662 167.701H417.462L417.189 168.673H417.389L415.756 174.51H415.556L415.284 175.483H415.484L413.851 181.32H413.651L413.379 182.292H413.579L411.946 188.129H411.746L411.474 189.102H411.674L410.041 194.939H409.841L409.569 195.911H409.769L408.136 201.748H407.936L407.664 202.721H407.864L406.231 208.558H406.031L405.759 209.53H405.959L404.326 215.367H404.126L403.854 216.34H404.054L402.421 222.177H402.221L401.949 223.15H402.149L400.516 228.986H400.316L400.044 229.959H400.244L398.611 235.796H398.411L398.138 236.769H398.338L396.706 242.605H396.505L396.233 243.578H396.433L394.8 249.415H394.6L394.328 250.389H394.528L392.895 256.224H392.695L392.423 257.198H392.623L390.99 263.035H390.79L390.518 264.008H390.718L389.085 269.844H388.885L388.613 270.817H388.813L387.18 276.654H386.98L386.708 277.627H386.908L385.275 283.464H385.075L384.803 284.436H385.003L383.37 290.273H383.17L382.897 291.246H383.097L381.464 297.083H381.264L380.992 298.055H381.192L379.559 303.892H379.359L379.087 304.865H379.287L377.654 310.702H377.454L377.182 311.674H377.382L375.749 317.511H375.549L375.277 318.484H375.477L373.844 324.321H373.644L373.372 325.293H373.572L371.939 331.13H371.739L371.467 332.103H371.667L370.034 337.94H369.834L369.752 338.233H369.447L369.393 338.426H363.332L363.386 338.233H362.376L362.322 338.426H356.261L356.315 338.233H355.305L355.251 338.426H349.19L349.244 338.233H348.234L348.18 338.426H342.119L342.173 338.233H341.163L341.109 338.426H335.048L335.102 338.233H334.092L334.038 338.426H327.977L328.031 338.233H327.021L326.967 338.426H320.906L320.96 338.233H319.95L319.896 338.426H313.835L313.889 338.233H312.879L312.825 338.426H306.764L306.818 338.233H305.808L305.754 338.426H299.693L299.747 338.233H298.736L298.682 338.426H292.622L292.676 338.233H291.665L291.611 338.426H285.55L285.604 338.233H284.594L284.54 338.426H278.479L278.533 338.233H277.523L277.469 338.426H271.408L271.462 338.233H270.452L270.398 338.426H264.337L264.391 338.233H263.381L263.327 338.426H257.266L257.32 338.233H256.31L256.256 338.426H250.195L250.249 338.233H249.239L249.185 338.426H243.124L243.178 338.233H242.168L242.114 338.426H236.053L236.107 338.233H235.097L235.043 338.426H228.982L229.036 338.233H228.026L227.972 338.426H221.911L221.965 338.233H220.955L220.901 338.426H214.84L214.894 338.233H213.884L213.83 338.426H207.769L207.823 338.233H206.813L206.759 338.426H200.698L200.752 338.233H199.742L199.688 338.426H193.627L193.681 338.233H192.671L192.617 338.426H186.556L186.61 338.233H185.599L185.545 338.426H179.485L179.539 338.233H178.528L178.474 338.426H172.413L172.467 338.233H171.457L171.403 338.426H165.342L165.396 338.233H164.386L164.332 338.426H158.271L158.325 338.233H157.315L157.261 338.426H151.2L151.254 338.233H150.244L150.19 338.426H144.129L144.183 338.233H143.173L143.119 338.426H137.058L137.112 338.233H136.102L136.048 338.426H129.987L130.041 338.233H129.031L128.977 338.426H122.916L122.97 338.233H121.96L121.906 338.426H115.845L115.899 338.233H114.888L114.835 338.426H108.774L108.828 338.233H107.817L107.764 338.426H101.703L101.756 338.233H100.746L100.692 338.426H94.6315L94.6854 338.233H93.6753L93.6214 338.426H87.5605L87.6144 338.233H87.3093L87.3915 337.94H87.1915L88.8244 332.103H89.0244L89.2966 331.13H89.0966L90.7295 325.293H90.9295L91.2017 324.321H91.0017L92.6346 318.484H92.8346L93.1068 317.511H92.9068L94.5397 311.674H94.7397L95.0119 310.702H94.8119L96.4448 304.865H96.6448L96.917 303.892H96.7169L98.3499 298.055H98.5499L98.8221 297.083H98.6221L100.255 291.246H100.455L100.727 290.273H100.527L102.16 284.436H102.36L102.632 283.464H102.432L104.065 277.627H104.265L104.537 276.654H104.337L105.97 270.817H106.17L106.442 269.844H106.242L107.875 264.008H108.075L108.348 263.034H108.148L109.781 257.198H109.981L110.253 256.224H110.053L111.686 250.388H111.886L112.158 249.415H111.958L113.591 243.578H113.791L114.063 242.605H113.863L115.496 236.769H115.696L115.968 235.796H115.768L117.401 229.959H117.601L117.873 228.986H117.673L119.306 223.15H119.506L119.778 222.177H119.578L121.211 216.34H121.411L121.683 215.367H121.483L123.116 209.53H123.316L123.589 208.558H123.389L125.022 202.721H125.222L125.494 201.748H125.294L126.927 195.911H127.127L127.399 194.939H127.199L128.832 189.102H129.032L129.304 188.129H129.104L130.737 182.292H130.937L131.209 181.32H131.009L132.642 175.483H132.842L133.114 174.51H132.914L134.547 168.673H134.747L135.019 167.701H134.819L136.452 161.864H136.652L136.924 160.891H136.724L138.357 155.054H138.557L138.83 154.081H138.63L140.262 148.245H140.462L140.735 147.271H140.535L142.168 141.434H142.368L142.64 140.462H142.44L144.073 134.625H144.273L144.545 133.652H144.345L145.978 127.815H146.178L146.45 126.843H146.25L147.883 121.006H148.083L148.355 120.033H148.155L149.788 114.196H149.988L150.26 113.223H150.06L151.693 107.387H151.893L152.165 106.414H151.965L153.598 100.577H153.798L154.07 99.6044H153.87L155.503 93.7675H155.703L155.976 92.7947H155.776L157.409 86.9579H157.609L157.881 85.9852H157.681L159.314 80.1484H159.514L159.786 79.1755H159.586L161.219 73.3388H161.419L161.691 72.3659H161.491Z" stroke="url(#paint2_linear_1_1084)" stroke-width="0.4" stroke-dasharray="1 6"/>
<path opacity="0.5" d="M346.579 202.235C358.483 159.686 332.316 125.193 288.133 125.193C243.95 125.193 198.483 159.686 186.579 202.235C174.675 244.784 200.842 279.276 245.025 279.276C289.208 279.276 334.675 244.784 346.579 202.235Z" stroke="#FF8AED" stroke-width="40" stroke-dasharray="0.4 32"/>
</g>
<defs>
<linearGradient id="paint0_linear_1_1084" x1="130.5" y1="-4.99999" x2="308.917" y2="109.084" gradientUnits="userSpaceOnUse">
<stop stop-color="#FF8AED"/>
<stop offset="1" stop-color="#FF8AED" stop-opacity="0"/>
</linearGradient>
<linearGradient id="paint1_linear_1_1084" x1="153.5" y1="9" x2="313.292" y2="142.295" gradientUnits="userSpaceOnUse">
<stop stop-color="#FF8AED"/>
<stop offset="1" stop-color="#FF8AED" stop-opacity="0"/>
</linearGradient>
<linearGradient id="paint2_linear_1_1084" x1="304.681" y1="66.0427" x2="474.565" y2="303.972" gradientUnits="userSpaceOnUse">
<stop stop-color="#FF8AED"/>
<stop offset="1" stop-color="#FF8AED" stop-opacity="0"/>
</linearGradient>
<clipPath id="clip0_1_1084">
<rect width="420" height="420" fill="white" transform="matrix(1 0 -0.269424 0.963022 113.158 0)"/>
</clipPath>
</defs>
</svg>
