<svg width="318" height="792" viewBox="0 0 318 792" fill="none" xmlns="http://www.w3.org/2000/svg">
<path d="M315.162 0L2.1833 112.368V667.857L315.162 789.112V0Z" fill="#090E2A"/>
<path d="M315.162 0L2.1833 112.368V667.857L315.162 789.112V0Z" fill="url(#paint0_radial_1_1414)" fill-opacity="0.74"/>
<path d="M302.465 4.44427V779.59L2.1838 650.081L302.465 466.611M211.683 36.8214L301.831 189.184M130.422 66.6591L302.465 255.843M63.7637 89.5135L301.831 289.49M0.914108 113.003L301.831 318.692M0.914108 228.544L301.831 340.277M301.831 366.306L5.35802 310.439M302.465 390.43L2.1838 394.874M302.465 419.633L2.1838 492.005M303.1 448.201L2.1838 580.248M302.465 486.926L49.1623 681.189M302.465 516.129L114.551 707.217M302.465 557.394L179.94 731.976M302.465 641.194L245.329 758.005M302.465 53.3273L31.3867 133.953L35.1957 627.227L302.465 711.027V53.3273ZM301.831 104.115L74.5561 163.79L83.4439 596.12L301.831 656.43V104.115ZM301.851 158.712L123.439 196.526L129.435 567.552L301.851 605.007V158.712ZM301.831 203.786L164.704 225.633L169.783 545.332L301.831 570.091V203.786ZM301.833 236.797L200.89 250.764L202.797 522.881L301.833 539.618V236.797ZM301.834 269.175L238.3 275.523L238.303 502.869L301.834 511.05V269.175ZM301.831 292.664L268.819 296.029L269.442 485.769L301.831 488.831V292.664Z" stroke="url(#paint1_linear_1_1414)" stroke-width="1.90453"/>
<path d="M217.396 34.9164L314.527 198.706M132.326 66.0237L315.162 265.365M64.3981 90.1479L314.527 299.012M2.1833 114.272L314.527 328.215M2.1833 233.623L314.527 349.799M314.527 375.828L2.1833 319.962M315.162 399.952L2.1833 403.126M315.162 429.155L2.1833 504.067M315.797 457.723L2.1833 596.119M315.162 476.133L2.81815 667.222M315.162 496.449L61.8587 690.711M315.162 525.651L127.248 716.74M315.162 566.916L192.637 741.499M315.162 650.716L258.026 767.527M2.1833 112.367V667.857L315.162 789.112V44.0231L270.232 15.408L2.1833 112.367ZM315.162 62.8495L44.0831 143.475L47.8921 636.749L315.162 720.549V62.8495ZM314.527 113.637L87.2525 173.313L96.1403 605.642L314.527 665.952V113.637ZM314.547 168.234L136.136 206.048L142.132 577.074L314.547 614.53V168.234ZM314.527 213.308L177.4 235.155L182.479 554.854L314.527 579.613V213.308ZM314.529 246.32L213.587 260.286L215.493 532.403L314.529 549.141V246.32ZM314.53 278.697L250.997 285.045L250.999 512.391L314.53 520.573V278.697ZM314.527 302.186L281.515 305.551L282.139 495.291L314.527 498.353V302.186Z" stroke="url(#paint2_linear_1_1414)" stroke-width="1.90453"/>
<path d="M315.162 789.112V44.0232L271.882 15.9584L2.1833 112.367V667.857L315.162 789.112Z" stroke="#7F5CFF" stroke-width="3.80907"/>
<defs>
<radialGradient id="paint0_radial_1_1414" cx="0" cy="0" r="1" gradientUnits="userSpaceOnUse" gradientTransform="translate(240.25 394.239) rotate(92.6061) scale(460.739 238.313)">
<stop offset="0.00663998" stop-color="#9D1FFF" stop-opacity="0.89"/>
<stop offset="0.559161" stop-color="#A83AFF" stop-opacity="0.49"/>
<stop offset="0.898958" stop-color="#270D3A" stop-opacity="0.389796"/>
<stop offset="1" stop-opacity="0.36"/>
</radialGradient>
<linearGradient id="paint1_linear_1_1414" x1="-10.5131" y1="365.671" x2="279.611" y2="418.363" gradientUnits="userSpaceOnUse">
<stop stop-opacity="0.41"/>
<stop offset="1" stop-opacity="0"/>
</linearGradient>
<linearGradient id="paint2_linear_1_1414" x1="-173.669" y1="343.451" x2="391.978" y2="403.126" gradientUnits="userSpaceOnUse">
<stop stop-color="#8F70FF"/>
<stop offset="1" stop-color="#9D21FF" stop-opacity="0"/>
</linearGradient>
</defs>
</svg>
