<svg width="287" height="407" viewBox="0 0 287 407" fill="none" xmlns="http://www.w3.org/2000/svg">
<path opacity="0.3" d="M92.9586 51.4707L260.812 47.9979C263.235 47.9478 265.579 48.8664 267.323 50.5502L279.086 61.9078C280.842 63.6039 281.844 65.9347 281.865 68.3765L284.221 336.879C284.243 339.364 283.247 341.75 281.466 343.483L264.97 359.534C263.184 361.271 260.765 362.201 258.275 362.106L91.181 355.746C88.7085 355.652 86.3808 354.555 84.7339 352.709L69.859 336.031C68.4064 334.402 67.5872 332.306 67.5509 330.123L63.4285 82.7786C63.3891 80.4184 64.2682 78.1352 65.8802 76.4107L86.4971 54.3554C88.1738 52.5618 90.5039 51.5215 92.9586 51.4707Z" fill="url(#paint0_linear_1_1189)" stroke="white" stroke-width="1.2137"/>
<path opacity="0.3" d="M247.227 32.8314L71.3137 41.54C68.7271 41.668 66.2804 42.7531 64.4491 44.5844L42.7122 66.3213C40.7037 68.3299 39.6004 71.0703 39.6571 73.9103L44.9629 339.787C45.0137 342.335 45.9948 344.776 47.7211 346.65L63.6737 363.97C65.5936 366.055 68.2785 367.269 71.1117 367.334L248.334 371.401C250.924 371.461 253.443 370.555 255.402 368.861L271.666 354.795C273.958 352.812 275.276 349.931 275.276 346.9V59.901C275.276 57.0845 274.137 54.3875 272.119 52.4226L255.025 35.778C252.948 33.7555 250.123 32.688 247.227 32.8314Z" fill="url(#paint1_linear_1_1189)" stroke="white" stroke-width="1.45644"/>
<g filter="url(#filter0_d_1_1189)">
<path d="M238.743 20L43.7954 30.9233L19.6699 55.0145V352.555L41.5165 378.042L235.709 387.145L266.658 360.626V46.7015L238.743 20Z" stroke="#FF89EC" stroke-width="2.57199" shape-rendering="crispEdges"/>
</g>
<g filter="url(#filter1_f_1_1189)">
<path d="M238.743 20L43.7954 30.9233L19.6699 55.0145V352.555L41.5165 378.042L235.709 387.145L266.658 360.626V46.7015L238.743 20Z" stroke="white" stroke-width="2"/>
</g>
<path d="M52.4846 56.0005L271.53 52.0286M50.9846 58.0005L273.074 54.0794M47.7149 60.5005L274.617 56.1303M45.704 62.5005L275.148 58.1932M43.715 65.0005L275.173 60.2622M41.9846 67.0005L275.198 62.3313M40.8547 69.2804L275.223 64.4003M40.8795 71.3494L275.248 66.4694M40.9044 73.4185L275.273 68.5385M40.9292 75.4875L275.297 70.6075M40.954 77.5565L275.322 72.6765M40.9788 79.6256L275.347 74.7456M41.0036 81.6946L275.372 76.8146M41.0284 83.7637L275.397 78.8837M41.0532 85.8327L275.421 80.9527M41.0781 87.9018L275.446 83.0218M41.1029 89.9708L275.471 85.0908M41.1277 92.0399L275.496 87.1599M41.1525 94.1089L275.521 89.2289M41.1773 96.178L275.545 91.298M41.2021 98.247L275.57 93.367M41.2269 100.316L275.595 95.4361M41.2517 102.385L275.62 97.5051M41.2766 104.454L275.645 99.5742M41.3014 106.523L275.67 101.643M41.3262 108.592L275.694 103.712M41.351 110.661L275.719 105.781M41.3758 112.73L275.744 107.85M41.4006 114.799L275.769 109.919M41.4254 116.869L275.794 111.989M41.4502 118.938L275.818 114.058M41.4751 121.007L275.843 116.127M41.4999 123.076L275.868 118.196M41.5247 125.145L275.893 120.265M41.5495 127.214L275.918 122.334M41.5743 129.283L275.942 124.403M41.5991 131.352L275.967 126.472M41.6239 133.421L275.992 128.541M41.6488 135.49L276.017 130.61M41.6736 137.559L276.042 132.679M41.6984 139.628L276.067 134.748M41.7232 141.697L276.091 136.817M41.748 143.766L276.116 138.886M41.7728 145.835L276.141 140.955M41.7976 147.904L276.166 143.024M41.8224 149.973L276.191 145.093M41.8473 152.042L276.215 147.162M41.8721 154.111L276.24 149.231M41.8969 156.18L276.265 151.3M41.9217 158.25L276.29 153.37M41.9465 160.319L276.315 155.439M41.9713 162.388L276.339 157.508M41.9961 164.457L276.364 159.577M42.0209 166.526L276.389 161.646M42.0458 168.595L276.414 163.715M42.0706 170.664L276.439 165.784M42.0954 172.733L276.464 167.853M42.1202 174.802L276.488 169.922M42.145 176.871L276.513 171.991M42.1698 178.94L276.538 174.06M42.1946 181.009L276.563 176.129M42.2195 183.078L276.588 178.198M42.2443 185.147L276.612 180.267M42.2691 187.216L276.637 182.336M42.2939 189.285L276.662 184.405M42.3187 191.354L276.687 186.474M42.3435 193.423L276.712 188.543M42.3683 195.492L276.736 190.612M42.3931 197.561L276.761 192.681M42.418 199.631L276.786 194.751M42.4428 201.7L276.811 196.82M42.4676 203.769L276.836 198.889M42.4924 205.838L276.861 200.958M42.5172 207.907L276.885 203.027M42.542 209.976L276.91 205.096M42.5668 212.045L276.935 207.165M42.5917 214.114L276.96 209.234M42.6165 216.183L276.985 211.303M42.6413 218.252L277.009 213.372M42.6661 220.321L277.034 215.441M42.6909 222.39L277.059 217.51M42.7157 224.459L277.084 219.579M42.7405 226.528L277.109 221.648M42.7653 228.597L277.133 223.717M42.7902 230.666L277.158 225.786M42.815 232.735L277.183 227.855M42.8398 234.804L277.208 229.924M42.8646 236.873L277.233 231.993M42.8894 238.942L277.258 234.062M42.9142 241.012L277.282 236.132M42.939 243.081L277.307 238.201M42.9638 245.15L277.332 240.27M42.9887 247.219L277.357 242.339M43.0135 249.288L277.382 244.408M43.0383 251.357L277.406 246.477M43.0631 253.426L277.431 248.546M43.0879 255.495L277.456 250.615M43.1127 257.564L277.481 252.684M43.1375 259.633L277.506 254.753M43.1624 261.702L277.53 256.822M43.1872 263.771L277.555 258.891M43.212 265.84L277.58 260.96M43.2368 267.909L277.605 263.029M43.2616 269.978L277.63 265.098M43.2864 272.047L277.655 267.167M43.3112 274.116L277.679 269.236M43.336 276.185L277.704 271.305M43.3609 278.254L277.729 273.374M43.3857 280.323L277.754 275.443M43.4105 282.392L277.779 277.512M43.4353 284.461L277.803 279.581M43.4601 286.53L277.828 281.65M43.4849 288.599L277.853 283.719M43.5097 290.668L277.878 285.788M43.5345 292.737L277.903 287.858M43.5594 294.807L277.927 289.927M43.5842 296.876L277.952 291.996M43.609 298.945L277.977 294.065M43.6338 301.014L278.002 296.134M43.6586 303.083L278.027 298.203M43.6834 305.152L278.052 300.272M43.7082 307.221L278.076 302.341M43.733 309.29L278.101 304.41M43.7579 311.359L278.126 306.479M43.7827 313.428L278.151 308.548M43.8075 315.497L278.176 310.617M43.8323 317.566L278.2 312.686M43.8571 319.635L278.225 314.755M43.8819 321.704L278.25 316.824M43.9067 323.773L278.275 318.893M43.9316 325.842L278.3 320.962M43.9564 327.911L278.325 323.031M43.9812 329.98L278.349 325.1M44.006 332.049L278.374 327.169M44.0308 334.118L278.399 329.238M44.0556 336.187L278.424 331.307M44.0804 338.256L278.449 333.376M44.1052 340.325L278.473 335.445M44.1301 342.394L278.498 337.514M44.1549 344.464L278.523 339.584M45.187 346.273L278.548 341.653M47.2393 348.34L278.573 343.722M139.985 37.7335L252.076 34.1551M67.9846 42.0005L255.663 37.7335M64.4846 44.0005L257.713 39.7782M62.1861 46.0005L260.269 41.8169M60.9846 48.0005L262.319 43.8617M59.1677 50.0005L264.875 45.9004M57.1721 52.0005L267.937 47.933M54.4846 54.0005L269.48 49.9838M48.2681 350.42L278.597 345.791M50.3138 352.487L276.091 347.89M52.377 354.554L274.091 349.984M53.9001 356.628L272.597 352.071M55.9709 358.695L270.09 354.17M57.9915 360.763L268.597 356.258M59.5321 362.836L267.103 358.345M61.5778 364.903L264.596 360.444M63.6235 366.971L262.596 362.538M122.985 367.5L260.09 364.637M150.485 369.5L260.09 366.637M211.985 370.5L260.09 368.637" stroke="white" stroke-opacity="0.1"/>
<g filter="url(#filter2_d_1_1189)">
<path d="M136.006 146.461C140.46 144.377 145.222 142.862 150.201 142C150.813 143.106 151.527 144.592 152.02 145.775C157.313 144.979 162.557 144.979 167.753 145.775C168.245 144.592 168.976 143.106 169.593 142C174.577 142.862 179.345 144.382 183.799 146.472C192.783 160.048 195.219 173.287 194.001 186.337C188.042 190.787 182.268 193.49 176.591 195.259C175.189 193.33 173.939 191.279 172.862 189.118C174.913 188.339 176.877 187.377 178.734 186.26C178.241 185.895 177.76 185.514 177.294 185.121C165.972 190.417 153.671 190.417 142.484 185.121C142.013 185.514 141.531 185.895 141.044 186.26C142.906 187.382 144.876 188.344 146.927 189.123C145.85 191.279 144.605 193.336 143.198 195.265C137.516 193.496 131.736 190.793 125.777 186.337C124.348 171.208 128.218 158.091 136.006 146.461ZM171.319 178.311C174.718 178.311 177.505 175.138 177.505 171.275C177.505 167.411 174.778 164.232 171.319 164.232C167.861 164.232 165.074 167.405 165.133 171.275C165.128 175.138 167.861 178.311 171.319 178.311ZM148.459 178.311C151.858 178.311 154.645 175.138 154.645 171.275C154.645 167.411 151.917 164.232 148.459 164.232C145.001 164.232 142.213 167.405 142.273 171.275C142.273 175.138 145.001 178.311 148.459 178.311Z" fill="white" fill-opacity="0.7" shape-rendering="crispEdges"/>
<path d="M146.232 189.389C144.338 188.637 142.516 187.731 140.786 186.688L140.15 186.305L140.745 185.86C141.224 185.5 141.699 185.124 142.164 184.737L142.409 184.533L142.698 184.669C153.748 189.901 165.894 189.902 177.082 184.668L177.372 184.533L177.616 184.739C178.074 185.125 178.547 185.5 179.031 185.858L179.632 186.303L178.991 186.689C177.267 187.726 175.45 188.632 173.557 189.384C174.508 191.233 175.589 192.999 176.785 194.674C182.246 192.937 187.797 190.315 193.524 186.07C194.68 173.233 192.262 160.221 183.46 146.865C179.187 144.874 174.624 143.411 169.858 142.555C169.29 143.603 168.654 144.911 168.214 145.968L168.064 146.329L167.677 146.27C162.532 145.481 157.338 145.481 152.094 146.27L151.708 146.328L151.558 145.968C151.118 144.909 150.496 143.601 149.934 142.555C145.174 143.411 140.616 144.869 136.344 146.855C128.705 158.311 124.9 171.207 126.254 186.07C131.981 190.32 137.538 192.943 143.004 194.68C144.203 193.005 145.28 191.236 146.232 189.389ZM178.005 171.275C178.005 175.352 175.053 178.811 171.319 178.811C167.525 178.811 164.63 175.352 164.633 171.278C164.572 167.187 167.531 163.732 171.319 163.732C175.116 163.732 178.005 167.201 178.005 171.275ZM155.145 171.275C155.145 175.352 152.192 178.811 148.459 178.811C144.664 178.811 141.775 175.351 141.773 171.278C141.712 167.187 144.67 163.732 148.459 163.732C152.255 163.732 155.145 167.201 155.145 171.275Z" stroke="white" stroke-opacity="0.5" shape-rendering="crispEdges"/>
</g>
<g filter="url(#filter3_d_1_1189)">
<path d="M123.985 302.642V309.221H122.34V300.997H127.274C128.864 300.997 130.221 301.559 131.345 302.683C132.469 303.807 133.031 305.164 133.031 306.754C133.031 308.344 132.469 309.701 131.345 310.825C130.221 311.949 128.864 312.511 127.274 312.511H122.34V310.866H127.274C128.409 310.866 129.377 310.466 130.177 309.665C130.983 308.859 131.386 307.889 131.386 306.754C131.386 305.619 130.983 304.651 130.177 303.851C129.377 303.045 128.409 302.642 127.274 302.642H123.985ZM136.321 312.511H134.676V300.997H136.321V312.511ZM141.255 300.997H148.656V302.642H141.255C140.8 302.642 140.411 302.804 140.087 303.127C139.769 303.445 139.61 303.832 139.61 304.287C139.61 304.742 139.769 305.131 140.087 305.455C140.411 305.773 140.8 305.932 141.255 305.932H145.367C146.277 305.932 147.053 306.252 147.694 306.894C148.336 307.535 148.656 308.311 148.656 309.221C148.656 310.131 148.336 310.907 147.694 311.549C147.053 312.19 146.277 312.511 145.367 312.511H137.965V310.866H145.367C145.822 310.866 146.208 310.707 146.526 310.389C146.85 310.065 147.012 309.676 147.012 309.221C147.012 308.766 146.85 308.38 146.526 308.062C146.208 307.738 145.822 307.576 145.367 307.576H141.255C140.345 307.576 139.569 307.256 138.928 306.614C138.286 305.973 137.965 305.197 137.965 304.287C137.965 303.377 138.286 302.601 138.928 301.959C139.569 301.318 140.345 300.997 141.255 300.997ZM155.384 300.997H160.318V302.642H155.384C154.249 302.642 153.278 303.045 152.472 303.851C151.672 304.651 151.272 305.619 151.272 306.754C151.272 307.889 151.672 308.859 152.472 309.665C153.278 310.466 154.249 310.866 155.384 310.866H160.318V312.511H155.384C153.794 312.511 152.437 311.949 151.313 310.825C150.189 309.701 149.627 308.344 149.627 306.754C149.627 305.164 150.189 303.807 151.313 302.683C152.437 301.559 153.794 300.997 155.384 300.997ZM166.206 311.277C167.456 311.277 168.523 310.836 169.406 309.953C170.288 309.07 170.73 308.004 170.73 306.754C170.73 305.504 170.288 304.438 169.406 303.555C168.523 302.672 167.456 302.231 166.206 302.231C164.956 302.231 163.89 302.672 163.007 303.555C162.125 304.438 161.683 305.504 161.683 306.754C161.683 308.004 162.125 309.07 163.007 309.953C163.89 310.836 164.956 311.277 166.206 311.277ZM166.206 312.922C164.501 312.922 163.046 312.322 161.839 311.121C160.639 309.915 160.038 308.459 160.038 306.754C160.038 305.049 160.639 303.596 161.839 302.395C163.046 301.189 164.501 300.586 166.206 300.586C167.912 300.586 169.364 301.189 170.565 302.395C171.771 303.596 172.374 305.049 172.374 306.754C172.374 308.459 171.771 309.915 170.565 311.121C169.364 312.322 167.912 312.922 166.206 312.922ZM175.253 302.642V312.511H173.608V300.997H181.01C181.92 300.997 182.695 301.318 183.337 301.959C183.978 302.601 184.299 303.377 184.299 304.287C184.299 305.197 183.978 305.973 183.337 306.614C182.695 307.256 181.92 307.576 181.01 307.576H179.71L184.645 312.511H182.309L175.73 305.932H181.01C181.465 305.932 181.851 305.773 182.169 305.455C182.493 305.131 182.654 304.742 182.654 304.287C182.654 303.832 182.493 303.445 182.169 303.127C181.851 302.804 181.465 302.642 181.01 302.642H175.253ZM187.375 302.642V309.221H185.73V300.997H190.664C192.254 300.997 193.611 301.559 194.735 302.683C195.859 303.807 196.421 305.164 196.421 306.754C196.421 308.344 195.859 309.701 194.735 310.825C193.611 311.949 192.254 312.511 190.664 312.511H185.73V310.866H190.664C191.799 310.866 192.767 310.466 193.568 309.665C194.373 308.859 194.776 307.889 194.776 306.754C194.776 305.619 194.373 304.651 193.568 303.851C192.767 303.045 191.799 302.642 190.664 302.642H187.375Z" fill="white"/>
</g>
<defs>
<filter id="filter0_d_1_1189" x="0.178318" y="0.479023" width="285.972" height="406.18" filterUnits="userSpaceOnUse" color-interpolation-filters="sRGB">
<feFlood flood-opacity="0" result="BackgroundImageFix"/>
<feColorMatrix in="SourceAlpha" type="matrix" values="0 0 0 0 0 0 0 0 0 0 0 0 0 0 0 0 0 0 127 0" result="hardAlpha"/>
<feOffset/>
<feGaussianBlur stdDeviation="9.10277"/>
<feComposite in2="hardAlpha" operator="out"/>
<feColorMatrix type="matrix" values="0 0 0 0 1 0 0 0 0 0.537255 0 0 0 0 0.92549 0 0 0 0.96 0"/>
<feBlend mode="normal" in2="BackgroundImageFix" result="effect1_dropShadow_1_1189"/>
<feBlend mode="normal" in="SourceGraphic" in2="effect1_dropShadow_1_1189" result="shape"/>
</filter>
<filter id="filter1_f_1_1189" x="13.6699" y="13.9771" width="258.989" height="379.186" filterUnits="userSpaceOnUse" color-interpolation-filters="sRGB">
<feFlood flood-opacity="0" result="BackgroundImageFix"/>
<feBlend mode="normal" in="SourceGraphic" in2="BackgroundImageFix" result="shape"/>
<feGaussianBlur stdDeviation="2.5" result="effect1_foregroundBlur_1_1189"/>
</filter>
<filter id="filter2_d_1_1189" x="107.484" y="128" width="104.809" height="89.2646" filterUnits="userSpaceOnUse" color-interpolation-filters="sRGB">
<feFlood flood-opacity="0" result="BackgroundImageFix"/>
<feColorMatrix in="SourceAlpha" type="matrix" values="0 0 0 0 0 0 0 0 0 0 0 0 0 0 0 0 0 0 127 0" result="hardAlpha"/>
<feOffset dy="4"/>
<feGaussianBlur stdDeviation="9"/>
<feComposite in2="hardAlpha" operator="out"/>
<feColorMatrix type="matrix" values="0 0 0 0 1 0 0 0 0 0.541176 0 0 0 0 0.929412 0 0 0 0.7 0"/>
<feBlend mode="normal" in2="BackgroundImageFix" result="effect1_dropShadow_1_1189"/>
<feBlend mode="normal" in="SourceGraphic" in2="effect1_dropShadow_1_1189" result="shape"/>
</filter>
<filter id="filter3_d_1_1189" x="104.34" y="286.586" width="110.081" height="48.3359" filterUnits="userSpaceOnUse" color-interpolation-filters="sRGB">
<feFlood flood-opacity="0" result="BackgroundImageFix"/>
<feColorMatrix in="SourceAlpha" type="matrix" values="0 0 0 0 0 0 0 0 0 0 0 0 0 0 0 0 0 0 127 0" result="hardAlpha"/>
<feOffset dy="4"/>
<feGaussianBlur stdDeviation="9"/>
<feComposite in2="hardAlpha" operator="out"/>
<feColorMatrix type="matrix" values="0 0 0 0 1 0 0 0 0 0.541176 0 0 0 0 0.929412 0 0 0 1 0"/>
<feBlend mode="normal" in2="BackgroundImageFix" result="effect1_dropShadow_1_1189"/>
<feBlend mode="normal" in="SourceGraphic" in2="effect1_dropShadow_1_1189" result="shape"/>
</filter>
<linearGradient id="paint0_linear_1_1189" x1="168.141" y1="66.7263" x2="168.141" y2="391.999" gradientUnits="userSpaceOnUse">
<stop stop-color="#FF5AEE" stop-opacity="0.33"/>
<stop offset="0.0001" stop-color="#FF4DE3"/>
<stop offset="1" stop-color="#FF4DE3" stop-opacity="0"/>
</linearGradient>
<linearGradient id="paint1_linear_1_1189" x1="167.559" y1="47.3066" x2="167.559" y2="411.418" gradientUnits="userSpaceOnUse">
<stop stop-color="#FF5AEE"/>
<stop offset="0.0001" stop-color="#FF4DE3"/>
<stop offset="1" stop-color="#FF4DE3" stop-opacity="0"/>
</linearGradient>
</defs>
</svg>
