<svg width="289" height="391" viewBox="0 0 289 391" fill="none" xmlns="http://www.w3.org/2000/svg">
<g style="mix-blend-mode:hard-light" opacity="0.3">
<path d="M53.6527 43.0166L218.777 44.6885C221.151 44.7125 223.413 45.6974 225.048 47.4181L241.967 65.2282C243.516 66.8584 244.379 69.021 244.379 71.2694V321.175C244.379 323.374 243.553 325.493 242.065 327.112L228.5 341.864C226.895 343.609 224.652 344.631 222.281 344.695L53.7422 349.271C51.2925 349.338 48.9266 348.376 47.2176 346.62L31.6769 330.647C30.0837 329.01 29.1923 326.815 29.1923 324.531V68.8303C29.1923 66.638 30.0133 64.5251 31.4936 62.908L47.0939 45.8651C48.7763 44.0271 51.1611 42.9914 53.6527 43.0166Z" fill="url(#paint0_linear_1_1165)"/>
<path d="M53.6527 43.0166L218.777 44.6885C221.151 44.7125 223.413 45.6974 225.048 47.4181L241.967 65.2282C243.516 66.8584 244.379 69.021 244.379 71.2694V321.175C244.379 323.374 243.553 325.493 242.065 327.112L228.5 341.864C226.895 343.609 224.652 344.631 222.281 344.695L53.7422 349.271C51.2925 349.338 48.9266 348.376 47.2176 346.62L31.6769 330.647C30.0837 329.01 29.1923 326.815 29.1923 324.531V68.8303C29.1923 66.638 30.0133 64.5251 31.4936 62.908L47.0939 45.8651C48.7763 44.0271 51.1611 42.9914 53.6527 43.0166Z" stroke="white" stroke-width="1.1695"/>
</g>
<path opacity="0.3" d="M226.6 31.7475H49.9462C47.3292 31.7475 44.8153 32.7676 42.9381 34.591L28.0318 49.0715C26.0822 50.9654 24.9821 53.5676 24.9821 56.2857V333.356C24.9821 335.561 25.7067 337.705 27.0445 339.457L39.2114 355.4C41.1527 357.944 44.1885 359.412 47.3879 359.355L233.522 356.001C236.175 355.953 238.702 354.859 240.552 352.956L255.652 337.425C257.498 335.526 258.52 332.977 258.498 330.329L256.225 60.3778C256.202 57.6568 255.077 55.0611 253.108 53.1834L233.541 34.5261C231.67 32.7425 229.185 31.7475 226.6 31.7475Z" fill="url(#paint1_linear_1_1165)" stroke="white" stroke-width="1.40339"/>
<g filter="url(#filter0_d_1_1165)">
<path d="M244.379 19H43.811L19.2516 43.9687V348.213L44.3957 372.188L247.888 368.094L270.108 344.12V44.7289L244.379 19Z" stroke="#CD63FF" stroke-width="2.4783" shape-rendering="crispEdges"/>
</g>
<g filter="url(#filter1_f_1_1165)">
<path d="M244.379 19H43.811L19.2516 43.9687V348.213L44.3957 372.188L247.888 368.094L270.108 344.12V44.7289L244.379 19Z" stroke="white" stroke-width="2"/>
</g>
<path d="M24.9845 54.9999L252.984 53M24.9845 56.9999L254.484 55M24.9845 58.9999L255.984 57M24.9845 60.9999L256.484 58.9999M24.9845 62.9999L256.484 60.9999M24.9845 64.9999L256.484 62.9999M24.9845 67L256.484 64.9999M24.9845 69L256.484 67M24.9845 71L256.484 69M24.9845 72.9999L256.484 71M24.9845 74.9999L256.484 72.9999M24.9845 76.9999L256.484 74.9999M24.9845 79L256.484 76.9999M24.9845 81L256.484 79M24.9845 83L256.484 81M24.9845 85L256.484 83M24.9845 87L256.484 85M24.9845 89L256.484 87M24.9845 90.9999L256.484 89M24.9845 92.9999L256.484 90.9999M24.9845 94.9999L256.484 92.9999M24.9845 96.9999L256.484 94.9999M24.9845 99L256.484 96.9999M24.9845 101L256.484 99M24.9845 103L256.484 101M24.9845 105L256.484 103M24.9845 107L256.484 105M24.9845 109L256.484 107M24.9845 111L256.484 109M24.9845 113L256.484 111M24.9845 115L256.484 113M24.9845 117L256.484 115M24.9845 119L256.484 117M24.9845 121L256.484 119M24.9845 123L256.484 121M24.9845 125L256.484 123M24.9845 127L256.484 125M24.9845 129L256.484 127M24.9845 131L256.484 129M24.9845 133L256.484 131M24.9845 135L256.484 133M24.9845 137L256.484 135M24.9845 139L256.484 137M24.9845 141L256.484 139M24.9845 143L256.484 141M24.9845 145L256.484 143M24.9845 147L256.484 145M24.9845 149L256.484 147M24.9845 151L256.484 149M24.9845 153L256.484 151M24.9845 155L256.484 153M24.9845 157L256.484 155M24.9845 159L256.484 157M24.9845 161L256.484 159M24.9845 163L256.484 161M24.9845 165L256.484 163M24.9845 167L256.484 165M24.9845 169L256.484 167M24.9845 171L256.484 169M24.9845 173L256.484 171M24.9845 175L256.484 173M24.9845 177L256.484 175M24.9845 179L256.484 177M24.9845 181L256.484 179M24.9845 183L256.484 181M24.9845 185L256.484 183M24.9845 187L256.484 185M24.9845 189L256.484 187M24.9845 191L256.484 189M24.9845 193L256.484 191M24.9845 195L256.484 193M24.9845 197L256.484 195M24.9845 199L256.484 197M24.9845 201L256.484 199M24.9845 203L256.484 201M24.9845 205L256.484 203M24.9845 207L256.484 205M24.9845 209L256.484 207M24.9845 211L256.484 209M24.9845 213L256.484 211M24.9845 215L256.484 213M24.9845 217L256.484 215M24.9845 219L256.484 217M24.9845 221L256.484 219M24.9845 223L256.484 221M24.9845 225L256.484 223M24.9845 227L256.484 225M24.9845 229L256.484 227M24.9845 231L256.484 229M24.9845 233L256.484 231M24.9845 235L256.484 233M24.9845 237L256.484 235M24.9845 239L256.484 237M24.9845 241L256.484 239M24.9845 243L256.484 241M24.9845 245L256.484 243M24.9845 247L256.484 245M24.9845 249L256.484 247M24.9845 251L256.484 249M24.9845 253L256.484 251M24.9845 255L256.484 253M24.9845 257L256.484 255M24.9845 259L256.484 257M24.9845 261L256.484 259M24.9845 263L256.484 261M24.9845 265L256.484 263M24.9845 267L256.484 265M24.9845 269L256.484 267M24.9845 271L256.484 269M24.9845 273L256.484 271M24.9845 275L256.484 273M24.9845 277L256.484 275M24.9845 279L256.484 277M24.9845 281L256.484 279M24.9845 283L256.484 281M24.9845 285L256.484 283M24.9845 287L256.484 285M24.9845 289L256.484 287M24.9845 291L256.484 289M24.9845 293L256.484 291M24.9845 295L256.484 293M24.9845 297L256.484 295M24.9845 299L256.484 297M24.9845 301L256.484 299M24.9845 303L256.484 301M24.9845 305L256.484 303M24.9845 307L256.484 305M24.9845 309L256.484 307M24.9845 311L256.484 309M24.9845 313L256.484 311M24.9845 315L256.484 313M24.9845 317L256.484 315M24.9845 319L256.484 317M24.9845 321L256.484 319M24.9845 323L256.484 321M24.9845 325L256.484 323M24.9845 327L256.484 325M24.9845 329L256.484 327M24.9845 331L256.484 329M24.9845 333L256.484 331M24.9845 335L256.484 333M25.9845 337L256.484 335M45.4845 33L228.984 32.5M41.9845 35L231.984 34M39.9845 37L233.984 35.5M37.9845 39L235.484 37M35.9845 41L237.484 39M33.9845 43L239.484 41M31.9845 45L241.984 43M29.4845 47L243.984 45M27.9845 49L246.484 47M26.4845 51L249.484 49M24.9845 53L250.984 51M26.4845 339L256.484 337M27.9845 341L253.984 339M29.9845 343L251.984 341M31.4845 345L250.484 343M32.9845 347L247.984 345M33.9845 349L246.484 347M36.4845 351L244.984 349M37.4845 353L242.484 351M38.9845 355L240.484 353M40.9845 357L237.984 355" stroke="white" stroke-opacity="0.1"/>
<g filter="url(#filter2_d_1_1165)">
<path d="M96.2628 305.059H94.6779V297.134H96.2628V305.059ZM100.225 295.549H90.7157V293.964H100.225V295.549ZM110.971 293.964V295.549H103.046V303.474H110.971V305.059H101.461V293.964H110.971ZM110.971 300.304H104.631V298.719H110.971V300.304ZM112.555 293.964H114.14V303.474H122.065V305.059H112.555V293.964ZM132.858 293.964V295.549H124.933V303.474H132.858V305.059H123.348V293.964H132.858ZM132.858 300.304H126.518V298.719H132.858V300.304ZM139.578 293.964H144.332V295.549H139.578C138.484 295.549 137.549 295.938 136.772 296.714C136.001 297.485 135.615 298.418 135.615 299.512C135.615 300.605 136.001 301.54 136.772 302.317C137.549 303.088 138.484 303.474 139.578 303.474H142.747V300.304H139.578V298.719H144.332V305.059H139.578C138.046 305.059 136.738 304.517 135.655 303.434C134.572 302.351 134.031 301.044 134.031 299.512C134.031 297.979 134.572 296.672 135.655 295.589C136.738 294.506 138.046 293.964 139.578 293.964ZM147.502 295.549V305.059H145.917V293.964H153.049C153.926 293.964 154.674 294.273 155.292 294.892C155.91 295.51 156.219 296.257 156.219 297.134C156.219 298.011 155.91 298.759 155.292 299.377C154.674 299.995 153.926 300.304 153.049 300.304H151.797L156.552 305.059H154.301L147.962 298.719H153.049C153.488 298.719 153.86 298.566 154.167 298.259C154.478 297.948 154.634 297.573 154.634 297.134C154.634 296.696 154.478 296.323 154.167 296.017C153.86 295.705 153.488 295.549 153.049 295.549H147.502ZM159.603 303.474H164.936V305.059H157.067L162.955 292.99L168.843 305.059H167.075L162.955 296.603L159.603 303.474ZM171.275 296.342V305.059H169.69V293.964H171.275L175.238 297.927L179.2 293.964H180.785V305.059H179.2V296.342L175.238 300.304L171.275 296.342Z" fill="white"/>
</g>
<g filter="url(#filter3_d_1_1165)">
<path d="M104.821 162.281C121.437 154.862 132.517 149.971 138.061 147.607C153.89 140.86 157.179 139.688 159.323 139.649C159.794 139.641 160.849 139.76 161.531 140.328C162.108 140.808 162.267 141.456 162.343 141.91C162.419 142.365 162.513 143.401 162.438 144.21C161.58 153.446 157.869 175.861 155.98 186.206C155.181 190.584 153.608 192.051 152.085 192.195C148.775 192.507 146.262 189.953 143.056 187.8C138.039 184.429 135.205 182.332 130.336 179.043C124.708 175.242 128.356 173.154 131.563 169.74C132.403 168.846 146.987 155.252 147.269 154.019C147.304 153.864 147.337 153.289 147.004 152.986C146.67 152.682 146.178 152.786 145.824 152.869C145.32 152.986 137.306 158.414 121.781 169.154C119.507 170.755 117.446 171.535 115.6 171.494C113.565 171.449 109.65 170.315 106.74 169.345C103.171 168.156 100.334 167.528 100.581 165.508C100.709 164.456 102.123 163.38 104.821 162.281Z" fill="white" fill-opacity="0.7" shape-rendering="crispEdges"/>
<path d="M105.01 162.744L105.017 162.741L105.025 162.737C121.642 155.318 132.718 150.429 138.257 148.067C146.173 144.693 150.942 142.718 153.998 141.581C157.063 140.441 158.352 140.167 159.332 140.149C159.527 140.145 159.866 140.169 160.229 140.258C160.595 140.348 160.95 140.495 161.212 140.713C161.645 141.073 161.778 141.567 161.85 141.993C161.921 142.419 162.01 143.41 161.94 144.164C161.085 153.375 157.377 175.77 155.489 186.117C154.697 190.454 153.197 191.588 152.038 191.697C150.534 191.839 149.189 191.336 147.789 190.494C147.088 190.072 146.386 189.572 145.648 189.035C145.526 188.946 145.402 188.855 145.278 188.765C144.657 188.311 144.011 187.839 143.335 187.385C140.83 185.702 138.871 184.337 136.927 182.981L136.67 182.801C134.812 181.505 132.946 180.203 130.616 178.629C129.236 177.697 128.491 176.911 128.148 176.239C127.823 175.601 127.844 175.033 128.096 174.443C128.363 173.821 128.887 173.176 129.588 172.445C129.895 172.125 130.227 171.798 130.575 171.454C130.62 171.409 130.665 171.364 130.711 171.319C131.107 170.928 131.52 170.516 131.928 170.082C132.121 169.877 133.071 168.971 134.42 167.686C135.938 166.241 137.959 164.315 139.973 162.366C141.867 160.533 143.747 158.686 145.172 157.218C145.885 156.485 146.488 155.842 146.925 155.34C147.142 155.089 147.324 154.868 147.459 154.684C147.526 154.592 147.586 154.503 147.634 154.42C147.677 154.346 147.73 154.243 147.756 154.13C147.788 153.989 147.807 153.745 147.769 153.487C147.732 153.23 147.628 152.878 147.34 152.616C147.052 152.354 146.71 152.285 146.426 152.282C146.15 152.28 145.885 152.341 145.71 152.382C145.601 152.407 145.48 152.471 145.403 152.513C145.302 152.568 145.175 152.642 145.023 152.734C144.719 152.919 144.299 153.186 143.765 153.533C142.697 154.229 141.159 155.256 139.155 156.614C135.146 159.33 129.26 163.373 121.497 168.743L121.494 168.745C119.264 170.314 117.309 171.032 115.611 170.994C114.656 170.973 113.217 170.692 111.623 170.282C110.041 169.876 108.346 169.353 106.898 168.871C106.453 168.723 106.025 168.585 105.616 168.453C104.35 168.045 103.27 167.697 102.452 167.29C101.917 167.025 101.549 166.759 101.329 166.482C101.123 166.223 101.032 165.938 101.077 165.569C101.117 165.243 101.372 164.819 102.04 164.31C102.697 163.811 103.679 163.286 105.01 162.744Z" stroke="white" stroke-opacity="0.5" shape-rendering="crispEdges"/>
</g>
<defs>
<filter id="filter0_d_1_1165" x="0.47002" y="0.218311" width="288.42" height="390.761" filterUnits="userSpaceOnUse" color-interpolation-filters="sRGB">
<feFlood flood-opacity="0" result="BackgroundImageFix"/>
<feColorMatrix in="SourceAlpha" type="matrix" values="0 0 0 0 0 0 0 0 0 0 0 0 0 0 0 0 0 0 127 0" result="hardAlpha"/>
<feOffset/>
<feGaussianBlur stdDeviation="8.77122"/>
<feComposite in2="hardAlpha" operator="out"/>
<feColorMatrix type="matrix" values="0 0 0 0 1 0 0 0 0 0.301961 0 0 0 0 0.890196 0 0 0 0.96 0"/>
<feBlend mode="normal" in2="BackgroundImageFix" result="effect1_dropShadow_1_1165"/>
<feBlend mode="normal" in="SourceGraphic" in2="effect1_dropShadow_1_1165" result="shape"/>
</filter>
<filter id="filter1_f_1_1165" x="14.2516" y="14" width="260.857" height="363.196" filterUnits="userSpaceOnUse" color-interpolation-filters="sRGB">
<feFlood flood-opacity="0" result="BackgroundImageFix"/>
<feBlend mode="normal" in="SourceGraphic" in2="BackgroundImageFix" result="shape"/>
<feGaussianBlur stdDeviation="2" result="effect1_foregroundBlur_1_1165"/>
</filter>
<filter id="filter2_d_1_1165" x="72.7158" y="278.99" width="126.069" height="48.0688" filterUnits="userSpaceOnUse" color-interpolation-filters="sRGB">
<feFlood flood-opacity="0" result="BackgroundImageFix"/>
<feColorMatrix in="SourceAlpha" type="matrix" values="0 0 0 0 0 0 0 0 0 0 0 0 0 0 0 0 0 0 127 0" result="hardAlpha"/>
<feOffset dy="4"/>
<feGaussianBlur stdDeviation="9"/>
<feComposite in2="hardAlpha" operator="out"/>
<feColorMatrix type="matrix" values="0 0 0 0 0.803922 0 0 0 0 0.388235 0 0 0 0 1 0 0 0 1 0"/>
<feBlend mode="normal" in2="BackgroundImageFix" result="effect1_dropShadow_1_1165"/>
<feBlend mode="normal" in="SourceGraphic" in2="effect1_dropShadow_1_1165" result="shape"/>
</filter>
<filter id="filter3_d_1_1165" x="82.5657" y="125.648" width="97.8998" height="88.5728" filterUnits="userSpaceOnUse" color-interpolation-filters="sRGB">
<feFlood flood-opacity="0" result="BackgroundImageFix"/>
<feColorMatrix in="SourceAlpha" type="matrix" values="0 0 0 0 0 0 0 0 0 0 0 0 0 0 0 0 0 0 127 0" result="hardAlpha"/>
<feOffset dy="4"/>
<feGaussianBlur stdDeviation="9"/>
<feComposite in2="hardAlpha" operator="out"/>
<feColorMatrix type="matrix" values="0 0 0 0 0.803922 0 0 0 0 0.388235 0 0 0 0 1 0 0 0 0.7 0"/>
<feBlend mode="normal" in2="BackgroundImageFix" result="effect1_dropShadow_1_1165"/>
<feBlend mode="normal" in="SourceGraphic" in2="effect1_dropShadow_1_1165" result="shape"/>
</filter>
<linearGradient id="paint0_linear_1_1165" x1="162.315" y1="55.2541" x2="162.315" y2="368.679" gradientUnits="userSpaceOnUse">
<stop stop-color="#D16EFF"/>
<stop offset="1" stop-color="#D16EFF" stop-opacity="0.49"/>
</linearGradient>
<linearGradient id="paint1_linear_1_1165" x1="161.754" y1="36.5425" x2="161.754" y2="387.391" gradientUnits="userSpaceOnUse">
<stop stop-color="#9B0CDF"/>
<stop offset="1" stop-color="#9B0CDF" stop-opacity="0"/>
</linearGradient>
</defs>
</svg>
