<svg width="286" height="407" viewBox="0 0 286 407" fill="none" xmlns="http://www.w3.org/2000/svg">
<g style="mix-blend-mode:hard-light" opacity="0.3">
<path d="M37.8646 35.2415L216.079 42.2303C218.475 42.3243 220.707 43.4708 222.179 45.3634L239.115 67.1386C240.225 68.566 240.828 70.3228 240.828 72.1311V340.377C240.828 342.242 240.187 344.05 239.013 345.499L225.232 362.495C223.75 364.323 221.549 365.419 219.197 365.5L33.9349 371.909C31.6819 371.987 29.4977 371.126 27.9037 369.532L13.0838 354.712C11.5588 353.187 10.702 351.119 10.702 348.962V59.7402C10.702 57.3953 11.7143 55.1645 13.479 53.6204L32.1911 37.2473C33.7563 35.8778 35.7866 35.16 37.8646 35.2415Z" fill="url(#paint0_linear_1_1157)"/>
<path d="M37.8646 35.2415L216.079 42.2303C218.475 42.3243 220.707 43.4708 222.179 45.3634L239.115 67.1386C240.225 68.566 240.828 70.3228 240.828 72.1311V340.377C240.828 342.242 240.187 344.05 239.013 345.499L225.232 362.495C223.75 364.323 221.549 365.419 219.197 365.5L33.9349 371.909C31.6819 371.987 29.4977 371.126 27.9037 369.532L13.0838 354.712C11.5588 353.187 10.702 351.119 10.702 348.962V59.7402C10.702 57.3953 11.7143 55.1645 13.479 53.6204L32.1911 37.2473C33.7563 35.8778 35.7866 35.16 37.8646 35.2415Z" stroke="white" stroke-width="1.08424"/>
</g>
<path opacity="0.3" d="M192.36 52.4753L27.7121 45.5428C24.8497 45.4222 22.0635 46.4836 20.0067 48.478L5.92786 62.1303C3.90053 64.0962 2.75628 66.7997 2.75628 69.6236V337.446C2.75628 339.929 3.64138 342.331 5.25266 344.22L17.4886 358.565L18.0426 358.093L17.4886 358.565C19.5537 360.987 22.6106 362.333 25.791 362.223L192.395 356.458C195.209 356.361 197.864 355.131 199.757 353.048L212.683 338.83C214.429 336.909 215.397 334.406 215.397 331.809V77.6812C215.397 75.1379 214.469 72.6822 212.786 70.7752L199.747 55.998C197.867 53.867 195.199 52.5948 192.36 52.4753Z" fill="url(#paint1_linear_1_1157)" stroke="white" stroke-width="1.45644"/>
<g filter="url(#filter0_d_1_1157)">
<path d="M241.977 26.6754L43.537 20L20.4767 45.3057V359.837L44.1439 387.145L246.225 378.649L266.252 351.948V53.3768L241.977 26.6754Z" stroke="#41C6FF" stroke-width="2.57199" shape-rendering="crispEdges"/>
</g>
<g filter="url(#filter1_f_1_1157)">
<path d="M241.977 26.6754L43.537 20L20.4767 45.3057V359.837L44.1439 387.145L246.225 378.649L266.252 351.948V53.3768L241.977 26.6754Z" stroke="white" stroke-width="2"/>
</g>
<path d="M241.075 65.6042L7.26194 61.0519M242.076 67.8871L5.6927 63.0427M242.052 69.8964L4.12346 65.0335M242.028 71.9057L3.58431 67.0365M242.004 73.915L3.56021 69.0458M241.98 75.9243L3.53612 71.0551M241.956 77.9336L3.51202 73.0644M241.932 79.9429L3.48792 75.0738M241.907 81.9522L3.46383 77.0831M241.883 83.9615L3.43973 79.0924M241.859 85.9708L3.41563 81.1017M241.835 87.9801L3.39154 83.111M241.811 89.9894L3.36744 85.1203M241.787 91.9987L3.34334 87.1296M241.763 94.008L3.31925 89.1389M241.739 96.0173L3.29515 91.1482M241.715 98.0266L3.27105 93.1575M241.691 100.036L3.24696 95.1668M241.666 102.045L3.22286 97.1761M241.642 104.055L3.19876 99.1854M241.618 106.064L3.17467 101.195M241.594 108.073L3.15057 103.204M241.57 110.082L3.12648 105.213M241.546 112.092L3.10238 107.223M241.522 114.101L3.07828 109.232M241.498 116.11L3.05419 111.241M241.474 118.12L3.03009 113.251M241.45 120.129L3.00599 115.26M241.425 122.138L2.9819 117.269M241.401 124.148L2.9578 119.278M241.377 126.157L2.9337 121.288M241.353 128.166L2.90961 123.297M241.329 130.175L2.88551 125.306M241.305 132.185L2.86141 127.316M241.281 134.194L2.83732 129.325M241.257 136.203L2.81322 131.334M241.233 138.213L2.78912 133.344M241.209 140.222L2.76503 135.353M241.185 142.231L2.74093 137.362M241.16 144.241L2.71683 139.371M241.136 146.25L2.69274 141.381M241.112 148.259L2.66864 143.39M241.088 150.269L2.64454 145.399M241.064 152.278L2.62045 147.409M241.04 154.287L2.59635 149.418M241.016 156.296L2.57226 151.427M240.992 158.306L2.54816 153.437M240.968 160.315L2.52406 155.446M240.944 162.324L2.49997 157.455M240.919 164.334L2.47587 159.465M240.895 166.343L2.45177 161.474M240.871 168.352L2.42768 163.483M240.847 170.362L2.40358 165.492M240.823 172.371L2.37948 167.502M240.799 174.38L2.35539 169.511M240.775 176.389L2.33129 171.52M240.751 178.399L2.30719 173.53M240.727 180.408L2.2831 175.539M240.703 182.417L2.259 177.548M240.678 184.427L2.2349 179.558M240.654 186.436L2.21081 181.567M240.63 188.445L2.18671 183.576M240.606 190.455L2.16261 185.585M240.582 192.464L2.13852 187.595M240.558 194.473L2.11442 189.604M240.534 196.483L2.09033 191.613M240.51 198.492L2.06623 193.623M240.486 200.501L2.04213 195.632M240.462 202.51L2.01804 197.641M240.438 204.52L1.99394 199.651M240.413 206.529L1.96984 201.66M240.389 208.538L1.94575 203.669M240.365 210.548L1.92165 205.678M240.341 212.557L1.89755 207.688M240.317 214.566L1.87346 209.697M240.293 216.576L1.84936 211.706M240.269 218.585L1.82526 213.716M240.245 220.594L1.80117 215.725M240.221 222.603L1.77707 217.734M240.197 224.613L1.75297 219.744M240.172 226.622L1.72888 221.753M240.148 228.631L1.70478 223.762M240.124 230.641L1.68068 225.772M240.1 232.65L1.65659 227.781M240.076 234.659L1.63249 229.79M240.052 236.669L1.6084 231.799M240.028 238.678L1.5843 233.809M240.004 240.687L1.5602 235.818M239.98 242.696L1.53611 237.827M239.956 244.706L1.51201 239.837M239.932 246.715L1.48791 241.846M239.907 248.724L1.46382 243.855M239.883 250.734L1.43972 245.865M239.859 252.743L1.41562 247.874M239.835 254.752L1.39153 249.883M239.811 256.762L1.36743 251.892M239.787 258.771L1.34333 253.902M239.763 260.78L1.31924 255.911M239.739 262.789L1.29514 257.92M239.715 264.799L1.27104 259.93M239.691 266.808L1.24695 261.939M239.666 268.817L1.22285 263.948M239.642 270.827L1.19876 265.958M239.618 272.836L1.17466 267.967M239.594 274.845L1.15056 269.976M239.57 276.854L1.12647 271.985M239.546 278.864L1.10237 273.995M239.522 280.873L1.07827 276.004M239.498 282.882L1.05418 278.013M239.474 284.892L1.03008 280.023M239.45 286.901L1.00598 282.032M239.425 288.91L0.981889 284.041M239.401 290.92L0.957792 286.05M239.377 292.929L0.933696 288.06M239.353 294.938L0.909599 290.069M239.329 296.947L0.885503 292.078M239.305 298.957L0.861406 294.088M239.281 300.966L0.83731 296.097M239.257 302.975L0.813213 298.106M239.233 304.985L0.789117 300.115M239.209 306.994L0.76502 302.125M239.185 309.003L0.740924 304.134M239.16 311.012L0.716829 306.143M239.136 313.022L0.692733 308.153M239.112 315.031L0.668636 310.162M239.088 317.04L0.64454 312.171M239.064 319.05L0.620443 314.18M239.04 321.059L0.596347 316.19M239.016 323.068L0.572251 318.199M238.992 325.077L0.548154 320.208M238.968 327.087L0.524058 322.218M238.944 329.096L0.499961 324.227M238.919 331.105L0.475865 326.236M238.895 333.115L0.451768 328.246M238.871 335.124L0.427671 330.255M238.847 337.133L0.403575 332.264M238.823 339.143L0.379478 334.273M238.799 341.152L0.355382 336.283M238.775 343.161L0.331286 338.292M238.751 345.171L0.307189 340.301M237.702 346.927L0.283092 342.311M235.615 348.933L0.258996 344.32M221.985 44.9994L26.9845 41.4993M223.307 47.1075L24.9845 43.4993M225.338 49.1634L23.4845 44.9993M226.822 51.2127L22.4845 47.4993M228.858 53.2686L21.3128 49.1629M230.894 55.3245L18.7135 51.1413M232.93 57.3805L16.6292 53.1259M234.966 59.4364L14.0299 55.1043M237.013 61.4924L10.9155 57.0766M239.037 63.5482L9.34623 59.0673M234.569 350.952L0.234901 346.329M232.489 352.959L2.78605 348.37M230.391 354.965L4.82216 350.404M228.843 356.978L6.34319 352.432M226.737 358.984L8.89435 354.472M224.683 360.991L10.4154 356.5M223.117 363.004L11.9364 358.528M221.036 365.011L14.4876 360.568M218.956 367.017L16.5237 362.602M216.368 368.51L19.0749 364.642M221.985 42.9993L29.9844 39.4995M165.984 39.9995L32.4845 36.9995" stroke="white" stroke-opacity="0.1"/>
<g filter="url(#filter2_d_1_1157)">
<path d="M91.1071 317.118H89.3493V308.329H91.1071V317.118ZM95.5017 306.571H84.9548V304.813H95.5017V306.571ZM106.585 310.79L108.246 314.191L112.816 304.813H114.776L108.246 318.199L101.716 304.813H103.675L105.609 308.786L107.543 304.813H109.503L106.585 310.79ZM104.73 314.595L102.972 318.199L96.4421 304.813H98.402L102.972 314.191L103.755 312.591L104.73 314.595ZM117.474 317.118H115.716V304.813H117.474V317.118ZM125.015 317.118H123.258V308.329H125.015V317.118ZM129.41 306.571H118.863V304.813H129.41V306.571ZM137.32 317.118H135.562V308.329H137.32V317.118ZM141.715 306.571H131.168V304.813H141.715V306.571ZM153.633 304.813V306.571H144.843V315.36H153.633V317.118H143.086V304.813H153.633ZM153.633 311.844H146.601V310.086H153.633V311.844ZM157.148 306.571V317.118H155.39V304.813H163.3C164.273 304.813 165.102 305.156 165.788 305.841C166.473 306.527 166.816 307.356 166.816 308.329C166.816 309.301 166.473 310.13 165.788 310.816C165.102 311.501 164.273 311.844 163.3 311.844H161.912L167.185 317.118H164.689L157.658 310.086H163.3C163.787 310.086 164.2 309.917 164.54 309.577C164.885 309.231 165.058 308.815 165.058 308.329C165.058 307.842 164.885 307.429 164.54 307.089C164.2 306.744 163.787 306.571 163.3 306.571H157.148Z" fill="white"/>
</g>
<g filter="url(#filter3_d_1_1157)">
<path d="M157.484 151.577C155.084 152.892 152.684 153.331 149.884 153.769C152.684 152.015 154.684 149.385 155.484 145.877C153.084 147.631 150.284 148.508 147.084 149.385C144.684 146.754 141.084 145 137.484 145C129.084 145 122.684 153.769 124.684 162.538C113.884 162.1 104.284 156.4 97.4845 147.631C93.8845 154.208 95.8845 162.538 101.484 166.923C99.4845 166.923 97.4845 166.046 95.4845 165.169C95.4845 171.746 99.8845 177.885 105.884 179.638C103.884 180.077 101.884 180.515 99.8845 180.077C101.484 185.777 106.284 190.162 112.284 190.162C107.484 194.108 100.284 196.3 93.4845 195.423C99.4845 199.369 106.284 202 113.484 202C137.884 202 151.484 179.638 150.684 159.031C153.484 157.277 155.884 154.646 157.484 151.577Z" fill="white" fill-opacity="0.7" shape-rendering="crispEdges"/>
<path d="M112.284 189.662C106.815 189.662 102.349 185.848 100.601 180.701C102.428 180.908 104.233 180.512 105.942 180.138L105.992 180.127L106.025 179.159C100.488 177.54 96.3334 172.015 96.0054 165.942C97.7676 166.705 99.6167 167.423 101.484 167.423H102.934L101.793 166.529C96.5694 162.44 94.5863 154.791 97.5742 148.551C104.417 157.069 113.948 162.603 124.664 163.038L125.317 163.065L125.172 162.427C123.233 153.926 129.45 145.5 137.484 145.5C140.93 145.5 144.4 147.184 146.715 149.722L146.921 149.948L147.217 149.867C149.937 149.121 152.429 148.362 154.641 147.035C153.718 149.778 151.962 151.878 149.619 153.345L149.962 154.263C152.208 153.911 154.248 153.554 156.25 152.723C154.736 155.124 152.713 157.17 150.419 158.607L150.174 158.761L150.185 159.05C150.978 179.48 137.505 201.5 113.484 201.5C107.088 201.5 100.994 199.387 95.4929 196.094C101.788 196.353 108.182 194.182 112.602 190.548L113.68 189.662H112.284Z" stroke="white" stroke-opacity="0.5" shape-rendering="crispEdges"/>
</g>
<defs>
<filter id="filter0_d_1_1157" x="0.985126" y="0.489277" width="284.758" height="406.172" filterUnits="userSpaceOnUse" color-interpolation-filters="sRGB">
<feFlood flood-opacity="0" result="BackgroundImageFix"/>
<feColorMatrix in="SourceAlpha" type="matrix" values="0 0 0 0 0 0 0 0 0 0 0 0 0 0 0 0 0 0 127 0" result="hardAlpha"/>
<feOffset/>
<feGaussianBlur stdDeviation="9.10277"/>
<feComposite in2="hardAlpha" operator="out"/>
<feColorMatrix type="matrix" values="0 0 0 0 0.254902 0 0 0 0 0.776471 0 0 0 0 1 0 0 0 0.96 0"/>
<feBlend mode="normal" in2="BackgroundImageFix" result="effect1_dropShadow_1_1157"/>
<feBlend mode="normal" in="SourceGraphic" in2="effect1_dropShadow_1_1157" result="shape"/>
</filter>
<filter id="filter1_f_1_1157" x="14.4767" y="13.9849" width="257.775" height="379.18" filterUnits="userSpaceOnUse" color-interpolation-filters="sRGB">
<feFlood flood-opacity="0" result="BackgroundImageFix"/>
<feBlend mode="normal" in="SourceGraphic" in2="BackgroundImageFix" result="shape"/>
<feGaussianBlur stdDeviation="2.5" result="effect1_foregroundBlur_1_1157"/>
</filter>
<filter id="filter2_d_1_1157" x="66.9548" y="290.813" width="118.23" height="49.3857" filterUnits="userSpaceOnUse" color-interpolation-filters="sRGB">
<feFlood flood-opacity="0" result="BackgroundImageFix"/>
<feColorMatrix in="SourceAlpha" type="matrix" values="0 0 0 0 0 0 0 0 0 0 0 0 0 0 0 0 0 0 127 0" result="hardAlpha"/>
<feOffset dy="4"/>
<feGaussianBlur stdDeviation="9"/>
<feComposite in2="hardAlpha" operator="out"/>
<feColorMatrix type="matrix" values="0 0 0 0 0.254902 0 0 0 0 0.776471 0 0 0 0 1 0 0 0 1 0"/>
<feBlend mode="normal" in2="BackgroundImageFix" result="effect1_dropShadow_1_1157"/>
<feBlend mode="normal" in="SourceGraphic" in2="effect1_dropShadow_1_1157" result="shape"/>
</filter>
<filter id="filter3_d_1_1157" x="75.4845" y="131" width="100" height="93" filterUnits="userSpaceOnUse" color-interpolation-filters="sRGB">
<feFlood flood-opacity="0" result="BackgroundImageFix"/>
<feColorMatrix in="SourceAlpha" type="matrix" values="0 0 0 0 0 0 0 0 0 0 0 0 0 0 0 0 0 0 127 0" result="hardAlpha"/>
<feOffset dy="4"/>
<feGaussianBlur stdDeviation="9"/>
<feComposite in2="hardAlpha" operator="out"/>
<feColorMatrix type="matrix" values="0 0 0 0 0.254902 0 0 0 0 0.776471 0 0 0 0 1 0 0 0 0.7 0"/>
<feBlend mode="normal" in2="BackgroundImageFix" result="effect1_dropShadow_1_1157"/>
<feBlend mode="normal" in="SourceGraphic" in2="effect1_dropShadow_1_1157" result="shape"/>
</filter>
<linearGradient id="paint0_linear_1_1157" x1="168.948" y1="57.018" x2="168.948" y2="382.29" gradientUnits="userSpaceOnUse">
<stop stop-color="#00B2FF"/>
<stop offset="1" stop-color="#1BD6FF" stop-opacity="0.61"/>
</linearGradient>
<linearGradient id="paint1_linear_1_1157" x1="168.366" y1="37.5988" x2="96.1504" y2="415.667" gradientUnits="userSpaceOnUse">
<stop stop-color="#00D1FF"/>
<stop offset="1" stop-color="white" stop-opacity="0.15"/>
</linearGradient>
</defs>
</svg>
