<svg width="285" height="387" viewBox="0 0 285 387" fill="none" xmlns="http://www.w3.org/2000/svg">
<g style="mix-blend-mode:hard-light" opacity="0.3">
<path d="M73.4066 43.5463H234.002C236.385 43.5463 238.673 44.4809 240.375 46.1493L259.487 64.8887C261.247 66.6142 262.232 68.9795 262.217 71.4441L260.703 318.986C260.687 321.628 259.524 324.132 257.517 325.849L240.906 340.054C239.257 341.464 237.159 342.239 234.989 342.239H68.4304C66.0162 342.239 63.7009 341.28 61.9938 339.573L48.2623 325.841C46.5552 324.134 45.5961 321.819 45.5961 319.405V71.3568C45.5961 68.9425 46.5552 66.6272 48.2623 64.9201L66.9699 46.2124C68.677 44.5053 70.9924 43.5463 73.4066 43.5463Z" fill="url(#paint0_linear_1_1178)"/>
<path d="M73.4066 43.5463H234.002C236.385 43.5463 238.673 44.4809 240.375 46.1493L259.487 64.8887C261.247 66.6142 262.232 68.9795 262.217 71.4441L260.703 318.986C260.687 321.628 259.524 324.132 257.517 325.849L240.906 340.054C239.257 341.464 237.159 342.239 234.989 342.239H68.4304C66.0162 342.239 63.7009 341.28 61.9938 339.573L48.2623 325.841C46.5552 324.134 45.5961 321.819 45.5961 319.405V71.3568C45.5961 68.9425 46.5552 66.6272 48.2623 64.9201L66.9699 46.2124C68.677 44.5053 70.9924 43.5463 73.4066 43.5463Z" stroke="white" stroke-width="1.2137"/>
</g>
<path opacity="0.3" d="M235.398 32.6724L59.9271 34.9965C57.1575 35.0332 54.5159 36.1693 52.5843 38.1546L36.2946 54.8968C34.3986 56.8454 33.3378 59.4569 33.3378 62.1757V325.768C33.3378 328.347 34.2923 330.834 36.0173 332.751L52.4786 351.041C54.4581 353.241 57.278 354.496 60.237 354.496H235.566C238.073 354.496 240.497 353.594 242.393 351.953L258.754 337.804C261.046 335.821 262.364 332.94 262.364 329.909V57.7272C262.364 54.7518 261.094 51.9179 258.873 49.9375L242.484 35.3196C240.536 33.5823 238.008 32.6379 235.398 32.6724Z" fill="url(#paint1_linear_1_1178)" stroke="white" stroke-width="1.45644"/>
<g filter="url(#filter0_d_1_1178)">
<path d="M238.575 20L44.3825 23.0343L20.1084 48.34V343.452L43.1688 362.871L242.216 366.512L264.67 343.452V42.4535L238.575 20Z" stroke="#56FFEB" stroke-width="2.57199" shape-rendering="crispEdges"/>
</g>
<g filter="url(#filter1_f_1_1178)">
<path d="M238.575 20L44.3825 23.0343L20.1084 48.34V343.452L43.1688 362.871L242.216 366.512L264.67 343.452V42.4535L238.575 20Z" stroke="white" stroke-width="2"/>
</g>
<g filter="url(#filter2_d_1_1178)">
<path d="M110.589 294.912L105.449 288.86H107.603L111.411 293.35L115.219 288.86H117.374L112.234 294.912V300.373H110.589V294.912ZM122.283 299.139C123.533 299.139 124.6 298.698 125.482 297.815C126.365 296.933 126.806 295.866 126.806 294.616C126.806 293.366 126.365 292.3 125.482 291.417C124.6 290.534 123.533 290.093 122.283 290.093C121.033 290.093 119.967 290.534 119.084 291.417C118.201 292.3 117.76 293.366 117.76 294.616C117.76 295.866 118.201 296.933 119.084 297.815C119.967 298.698 121.033 299.139 122.283 299.139ZM122.283 300.784C120.578 300.784 119.122 300.184 117.916 298.983C116.716 297.777 116.115 296.321 116.115 294.616C116.115 292.911 116.716 291.458 117.916 290.258C119.122 289.051 120.578 288.448 122.283 288.448C123.988 288.448 125.441 289.051 126.642 290.258C127.848 291.458 128.451 292.911 128.451 294.616C128.451 296.321 127.848 297.777 126.642 298.983C125.441 300.184 123.988 300.784 122.283 300.784ZM139.554 294.616V288.86H141.198V294.616C141.198 296.206 140.636 297.563 139.512 298.687C138.388 299.811 137.032 300.373 135.442 300.373C133.852 300.373 132.495 299.811 131.371 298.687C130.247 297.563 129.685 296.206 129.685 294.616V288.86H131.33V294.616C131.33 295.751 131.73 296.722 132.53 297.528C133.336 298.328 134.307 298.728 135.442 298.728C136.576 298.728 137.544 298.328 138.345 297.528C139.151 296.722 139.554 295.751 139.554 294.616ZM148.271 300.373H146.626V292.149H148.271V300.373ZM152.383 290.504H142.514V288.86H152.383V290.504ZM163.535 294.616V288.86H165.179V294.616C165.179 296.206 164.617 297.563 163.494 298.687C162.37 299.811 161.013 300.373 159.423 300.373C157.833 300.373 156.476 299.811 155.352 298.687C154.228 297.563 153.666 296.206 153.666 294.616V288.86H155.311V294.616C155.311 295.751 155.711 296.722 156.511 297.528C157.317 298.328 158.288 298.728 159.423 298.728C160.558 298.728 161.525 298.328 162.326 297.528C163.132 296.722 163.535 295.751 163.535 294.616ZM168.469 290.504V297.083H166.824V288.86H174.226C175.136 288.86 175.912 289.18 176.553 289.822C177.195 290.463 177.515 291.239 177.515 292.149C177.515 293.059 177.195 293.835 176.553 294.476C176.504 294.526 176.454 294.572 176.405 294.616C176.454 294.66 176.504 294.707 176.553 294.756C177.195 295.398 177.515 296.173 177.515 297.083C177.515 297.994 177.195 298.769 176.553 299.411C175.912 300.052 175.136 300.373 174.226 300.373H166.824V298.728H174.226C174.681 298.728 175.067 298.569 175.385 298.251C175.709 297.928 175.871 297.539 175.871 297.083C175.871 296.628 175.709 296.242 175.385 295.924C175.067 295.6 174.681 295.439 174.226 295.439H170.114V293.794H174.226C174.681 293.794 175.067 293.635 175.385 293.317C175.709 292.993 175.871 292.604 175.871 292.149C175.871 291.694 175.709 291.307 175.385 290.99C175.067 290.666 174.681 290.504 174.226 290.504H168.469ZM189.029 288.86V290.504H180.805V298.728H189.029V300.373H179.16V288.86H189.029ZM189.029 295.439H182.45V293.794H189.029V295.439Z" fill="white"/>
</g>
<g filter="url(#filter3_d_1_1178)">
<mask id="path-6-inside-1_1_1178" fill="white">
<path fill-rule="evenodd" clip-rule="evenodd" d="M176.337 136.476C179.136 137.295 181.344 139.694 182.097 142.735C183.497 148.292 183.443 159.874 183.443 159.874C183.443 159.874 183.443 171.398 182.097 176.955C181.344 179.997 179.136 182.395 176.337 183.214C171.223 184.676 150.767 184.676 150.767 184.676C150.767 184.676 130.364 184.676 125.196 183.156C122.397 182.337 120.19 179.938 119.436 176.897C118.09 171.398 118.09 159.816 118.09 159.816C118.09 159.816 118.09 148.292 119.436 142.735C120.19 139.694 122.451 137.237 125.196 136.418C130.31 134.956 150.767 134.956 150.767 134.956C150.767 134.956 171.223 134.956 176.337 136.476ZM161.264 159.41L144.253 170.056V148.763L161.264 159.41Z"/>
</mask>
<path fill-rule="evenodd" clip-rule="evenodd" d="M176.337 136.476C179.136 137.295 181.344 139.694 182.097 142.735C183.497 148.292 183.443 159.874 183.443 159.874C183.443 159.874 183.443 171.398 182.097 176.955C181.344 179.997 179.136 182.395 176.337 183.214C171.223 184.676 150.767 184.676 150.767 184.676C150.767 184.676 130.364 184.676 125.196 183.156C122.397 182.337 120.19 179.938 119.436 176.897C118.09 171.398 118.09 159.816 118.09 159.816C118.09 159.816 118.09 148.292 119.436 142.735C120.19 139.694 122.451 137.237 125.196 136.418C130.31 134.956 150.767 134.956 150.767 134.956C150.767 134.956 171.223 134.956 176.337 136.476ZM161.264 159.41L144.253 170.056V148.763L161.264 159.41Z" fill="white" fill-opacity="0.7" shape-rendering="crispEdges"/>
<path d="M182.097 142.735L181.127 142.976L181.128 142.98L182.097 142.735ZM176.337 136.476L176.052 137.435L176.056 137.436L176.337 136.476ZM183.443 159.874L182.443 159.87V159.874H183.443ZM182.097 176.955L183.068 177.196L183.069 177.19L182.097 176.955ZM176.337 183.214L176.612 184.175L176.618 184.174L176.337 183.214ZM125.196 183.156L125.479 182.196L125.477 182.196L125.196 183.156ZM119.436 176.897L118.465 177.134L118.466 177.137L119.436 176.897ZM119.436 142.735L118.466 142.495L118.464 142.5L119.436 142.735ZM125.196 136.418L124.921 135.456L124.91 135.46L125.196 136.418ZM144.253 170.056H143.253V171.861L144.784 170.903L144.253 170.056ZM161.264 159.41L161.795 160.257L163.149 159.41L161.795 158.562L161.264 159.41ZM144.253 148.763L144.784 147.916L143.253 146.958V148.763H144.253ZM183.068 142.495C182.236 139.139 179.789 136.444 176.618 135.517L176.056 137.436C178.484 138.146 180.451 140.248 181.127 142.976L183.068 142.495ZM183.443 159.874C184.443 159.879 184.443 159.879 184.443 159.879C184.443 159.879 184.443 159.879 184.443 159.878C184.443 159.878 184.443 159.877 184.443 159.877C184.443 159.875 184.443 159.873 184.443 159.87C184.443 159.864 184.443 159.855 184.443 159.844C184.443 159.821 184.443 159.787 184.443 159.744C184.443 159.656 184.443 159.527 184.443 159.362C184.441 159.031 184.438 158.554 184.429 157.964C184.413 156.784 184.375 155.152 184.294 153.344C184.133 149.757 183.794 145.379 183.067 142.491L181.128 142.98C181.8 145.649 182.134 149.84 182.296 153.434C182.376 155.216 182.413 156.827 182.43 157.992C182.438 158.575 182.441 159.045 182.443 159.37C182.443 159.532 182.443 159.658 182.443 159.742C182.443 159.785 182.443 159.817 182.443 159.838C182.443 159.849 182.443 159.857 182.443 159.862C182.443 159.865 182.443 159.867 182.443 159.868C182.443 159.869 182.443 159.869 182.443 159.87C182.443 159.87 182.443 159.87 182.443 159.87C182.443 159.87 182.443 159.87 183.443 159.874ZM183.069 177.19C183.767 174.308 184.106 169.95 184.274 166.378C184.358 164.578 184.401 162.954 184.422 161.78C184.432 161.193 184.438 160.717 184.44 160.389C184.442 160.224 184.442 160.096 184.443 160.009C184.443 159.966 184.443 159.932 184.443 159.91C184.443 159.898 184.443 159.89 184.443 159.884C184.443 159.881 184.443 159.879 184.443 159.877C184.443 159.876 184.443 159.876 184.443 159.875C184.443 159.875 184.443 159.875 184.443 159.875C184.443 159.875 184.443 159.874 183.443 159.874C182.443 159.874 182.443 159.874 182.443 159.874C182.443 159.875 182.443 159.875 182.443 159.875C182.443 159.875 182.443 159.875 182.443 159.876C182.443 159.877 182.443 159.879 182.443 159.882C182.443 159.887 182.443 159.895 182.443 159.906C182.443 159.927 182.443 159.959 182.443 160.001C182.442 160.086 182.442 160.211 182.44 160.372C182.438 160.695 182.433 161.164 182.422 161.744C182.401 162.904 182.359 164.508 182.276 166.284C182.108 169.862 181.773 174.045 181.125 176.72L183.069 177.19ZM176.618 184.174C179.789 183.246 182.236 180.551 183.068 177.196L181.127 176.715C180.451 179.442 178.484 181.544 176.056 182.254L176.618 184.174ZM150.767 184.676C150.767 185.676 150.767 185.676 150.767 185.676C150.767 185.676 150.767 185.676 150.768 185.676C150.768 185.676 150.769 185.676 150.771 185.676C150.773 185.676 150.777 185.676 150.782 185.676C150.792 185.676 150.807 185.676 150.827 185.676C150.866 185.676 150.924 185.676 151 185.676C151.152 185.676 151.375 185.675 151.661 185.674C152.232 185.671 153.053 185.665 154.054 185.653C156.056 185.631 158.78 185.585 161.666 185.493C164.55 185.401 167.603 185.264 170.262 185.056C172.891 184.851 175.224 184.572 176.612 184.175L176.062 182.253C174.893 182.587 172.751 182.856 170.107 183.062C167.491 183.266 164.472 183.403 161.602 183.494C158.735 183.585 156.025 183.631 154.032 183.654C153.035 183.665 152.218 183.671 151.651 183.674C151.367 183.675 151.146 183.676 150.995 183.676C150.92 183.676 150.863 183.676 150.824 183.676C150.805 183.676 150.791 183.676 150.781 183.676C150.776 183.676 150.773 183.676 150.77 183.676C150.769 183.676 150.768 183.676 150.768 183.676C150.767 183.676 150.767 183.676 150.767 183.676C150.767 183.676 150.767 183.676 150.767 184.676ZM124.914 184.115C126.318 184.528 128.659 184.818 131.291 185.032C133.953 185.247 137.006 185.39 139.886 185.486C142.769 185.581 145.488 185.629 147.486 185.653C148.485 185.664 149.305 185.67 149.875 185.673C150.16 185.675 150.382 185.676 150.534 185.676C150.61 185.676 150.668 185.676 150.707 185.676C150.726 185.676 150.741 185.676 150.751 185.676C150.756 185.676 150.76 185.676 150.763 185.676C150.764 185.676 150.765 185.676 150.766 185.676C150.766 185.676 150.766 185.676 150.766 185.676C150.767 185.676 150.767 185.676 150.767 184.676C150.767 183.676 150.767 183.676 150.767 183.676C150.766 183.676 150.766 183.676 150.766 183.676C150.765 183.676 150.765 183.676 150.763 183.676C150.761 183.676 150.757 183.676 150.753 183.676C150.743 183.676 150.728 183.676 150.709 183.676C150.671 183.676 150.614 183.676 150.539 183.676C150.389 183.676 150.168 183.675 149.885 183.673C149.319 183.67 148.504 183.665 147.51 183.653C145.521 183.629 142.817 183.582 139.953 183.487C137.087 183.392 134.07 183.25 131.453 183.038C128.806 182.824 126.659 182.544 125.479 182.196L124.914 184.115ZM118.466 177.137C119.297 180.493 121.745 183.188 124.916 184.115L125.477 182.196C123.049 181.485 121.083 179.384 120.407 176.656L118.466 177.137ZM118.09 159.816C117.09 159.816 117.09 159.816 117.09 159.816C117.09 159.816 117.09 159.817 117.09 159.817C117.09 159.817 117.09 159.818 117.09 159.819C117.09 159.82 117.09 159.822 117.09 159.825C117.09 159.831 117.09 159.84 117.09 159.851C117.091 159.874 117.091 159.907 117.091 159.951C117.091 160.039 117.092 160.167 117.093 160.332C117.096 160.663 117.101 161.14 117.112 161.73C117.133 162.908 117.175 164.538 117.26 166.341C117.428 169.92 117.766 174.28 118.465 177.134L120.408 176.659C119.76 174.015 119.426 169.834 119.258 166.247C119.174 164.468 119.132 162.858 119.111 161.694C119.101 161.111 119.096 160.641 119.093 160.316C119.092 160.154 119.091 160.028 119.091 159.944C119.091 159.901 119.091 159.869 119.09 159.848C119.09 159.837 119.09 159.829 119.09 159.823C119.09 159.821 119.09 159.819 119.09 159.818C119.09 159.817 119.09 159.817 119.09 159.816C119.09 159.816 119.09 159.816 119.09 159.816C119.09 159.816 119.09 159.816 118.09 159.816ZM118.464 142.5C117.766 145.382 117.428 149.74 117.26 153.313C117.175 155.112 117.133 156.736 117.112 157.911C117.101 158.498 117.096 158.973 117.093 159.302C117.092 159.466 117.091 159.594 117.091 159.681C117.091 159.725 117.091 159.758 117.09 159.781C117.09 159.792 117.09 159.801 117.09 159.807C117.09 159.81 117.09 159.812 117.09 159.813C117.09 159.814 117.09 159.815 117.09 159.815C117.09 159.815 117.09 159.816 117.09 159.816C117.09 159.816 117.09 159.816 118.09 159.816C119.09 159.816 119.09 159.816 119.09 159.816C119.09 159.816 119.09 159.816 119.09 159.816C119.09 159.815 119.09 159.815 119.09 159.814C119.09 159.813 119.09 159.811 119.09 159.809C119.09 159.803 119.09 159.795 119.09 159.785C119.091 159.763 119.091 159.731 119.091 159.689C119.091 159.605 119.092 159.48 119.093 159.318C119.096 158.995 119.101 158.527 119.111 157.947C119.132 156.786 119.174 155.182 119.258 153.407C119.426 149.828 119.76 145.646 120.408 142.971L118.464 142.5ZM124.91 135.46C121.795 136.389 119.296 139.142 118.466 142.495L120.407 142.976C121.083 140.245 123.107 138.085 125.482 137.376L124.91 135.46ZM150.767 134.956C150.767 133.956 150.767 133.956 150.766 133.956C150.766 133.956 150.766 133.956 150.766 133.956C150.765 133.956 150.764 133.956 150.763 133.956C150.76 133.956 150.756 133.956 150.751 133.956C150.741 133.956 150.726 133.956 150.707 133.956C150.668 133.956 150.609 133.956 150.533 133.956C150.381 133.956 150.158 133.957 149.873 133.958C149.302 133.961 148.48 133.967 147.479 133.978C145.477 134.001 142.753 134.047 139.868 134.139C136.984 134.23 133.93 134.368 131.271 134.576C128.642 134.781 126.31 135.06 124.921 135.456L125.471 137.379C126.64 137.045 128.782 136.776 131.427 136.569C134.042 136.366 137.061 136.229 139.931 136.138C142.799 136.047 145.509 136.001 147.502 135.978C148.498 135.967 149.315 135.961 149.883 135.958C150.167 135.957 150.388 135.956 150.538 135.956C150.613 135.956 150.671 135.956 150.709 135.956C150.728 135.956 150.743 135.956 150.752 135.956C150.757 135.956 150.761 135.956 150.763 135.956C150.764 135.956 150.765 135.956 150.766 135.956C150.766 135.956 150.766 135.956 150.767 135.956C150.767 135.956 150.767 135.956 150.767 134.956ZM176.622 135.518C175.23 135.104 172.894 134.814 170.265 134.6C167.606 134.385 164.551 134.242 161.667 134.146C158.781 134.051 156.057 134.003 154.055 133.979C153.053 133.967 152.232 133.962 151.661 133.959C151.375 133.957 151.152 133.956 151 133.956C150.924 133.956 150.866 133.956 150.827 133.956C150.807 133.956 150.792 133.956 150.782 133.956C150.777 133.956 150.773 133.956 150.771 133.956C150.769 133.956 150.768 133.956 150.768 133.956C150.767 133.956 150.767 133.956 150.767 133.956C150.767 133.956 150.767 133.956 150.767 134.956C150.767 135.956 150.767 135.956 150.767 135.956C150.767 135.956 150.767 135.956 150.768 135.956C150.768 135.956 150.769 135.956 150.77 135.956C150.773 135.956 150.776 135.956 150.781 135.956C150.791 135.956 150.805 135.956 150.824 135.956C150.863 135.956 150.92 135.956 150.995 135.956C151.145 135.956 151.367 135.957 151.65 135.959C152.218 135.961 153.035 135.967 154.031 135.979C156.024 136.003 158.734 136.05 161.601 136.145C164.47 136.24 167.489 136.382 170.103 136.594C172.748 136.808 174.887 137.088 176.052 137.435L176.622 135.518ZM144.784 170.903L161.795 160.257L160.734 158.562L143.722 169.208L144.784 170.903ZM143.253 148.763V170.056H145.253V148.763H143.253ZM161.795 158.562L144.784 147.916L143.722 149.611L160.734 160.257L161.795 158.562Z" fill="white" fill-opacity="0.5" mask="url(#path-6-inside-1_1_1178)"/>
</g>
<path d="M35.4845 54.9996L262.977 53.2785M34.4845 57.2353L264.48 55.2569M34.4845 59.2137L265.983 57.2353M34.4845 61.1921L266.485 59.2137M34.4845 63.1706L266.485 61.1921M34.4845 65.149L266.485 63.1706M34.4845 67.1274L266.485 65.149M34.4845 69.1059L266.485 67.1274M34.4845 71.0843L266.485 69.1059M34.4845 73.0627L266.485 71.0843M34.4845 75.0411L266.485 73.0627M34.4845 77.0196L266.485 75.0411M34.4845 78.998L266.485 77.0196M34.4845 80.9764L266.485 78.998M34.4845 82.9548L266.485 80.9764M34.4845 84.9333L266.485 82.9548M34.4845 86.9117L266.485 84.9333M34.4845 88.8901L266.485 86.9117M34.4845 90.8685L266.485 88.8901M34.4845 92.847L266.485 90.8685M34.4845 94.8254L266.485 92.847M34.4845 96.8038L266.485 94.8254M34.4845 98.7823L266.485 96.8038M34.4845 100.761L266.485 98.7823M34.4845 102.739L266.485 100.761M34.4845 104.718L266.485 102.739M34.4845 106.696L266.485 104.718M34.4845 108.674L266.485 106.696M34.4845 110.653L266.485 108.674M34.4845 112.631L266.485 110.653M34.4845 114.61L266.485 112.631M34.4845 116.588L266.485 114.61M34.4845 118.567L266.485 116.588M34.4845 120.545L266.485 118.567M34.4845 122.523L266.485 120.545M34.4845 124.502L266.485 122.523M34.4845 126.48L266.485 124.502M34.4845 128.459L266.485 126.48M34.4845 130.437L266.485 128.459M34.4845 132.416L266.485 130.437M34.4845 134.394L266.485 132.416M34.4845 136.372L266.485 134.394M34.4845 138.351L266.485 136.372M34.4845 140.329L266.485 138.351M34.4845 142.308L266.485 140.329M34.4845 144.286L266.485 142.308M34.4845 146.265L266.485 144.286M34.4845 148.243L266.485 146.265M34.4845 150.221L266.485 148.243M34.4845 152.2L266.485 150.221M34.4845 154.178L266.485 152.2M34.4845 156.157L266.485 154.178M34.4845 158.135L266.485 156.157M34.4845 160.114L266.485 158.135M34.4845 162.092L266.485 160.114M34.4845 164.07L266.485 162.092M34.4845 166.049L266.485 164.07M34.4845 168.027L266.485 166.049M34.4845 170.006L266.485 168.027M34.4845 171.984L266.485 170.006M34.4845 173.963L266.485 171.984M34.4845 175.941L266.485 173.963M34.4845 177.919L266.485 175.941M34.4845 179.898L266.485 177.919M34.4845 181.876L266.485 179.898M34.4845 183.855L266.485 181.876M34.4845 185.833L266.485 183.855M34.4845 187.812L266.485 185.833M34.4845 189.79L266.485 187.812M34.4845 191.768L266.485 189.79M34.4845 193.747L266.485 191.768M34.4845 195.725L266.485 193.747M34.4845 197.704L266.485 195.725M34.4845 199.682L266.485 197.704M34.4845 201.661L266.485 199.682M34.4845 203.639L266.485 201.661M34.4845 205.617L266.485 203.639M34.4845 207.596L266.485 205.617M34.4845 209.574L266.485 207.596M34.4845 211.553L266.485 209.574M34.4845 213.531L266.485 211.553M34.4845 215.51L266.485 213.531M34.4845 217.488L266.485 215.51M34.4845 219.466L266.485 217.488M34.4845 221.445L266.485 219.466M34.4845 223.423L266.485 221.445M34.4845 225.402L266.485 223.423M34.4845 227.38L266.485 225.402M34.4845 229.359L266.485 227.38M34.4845 231.337L266.485 229.359M34.4845 233.315L266.485 231.337M34.4845 235.294L266.485 233.315M34.4845 237.272L266.485 235.294M34.4845 239.251L266.485 237.272M34.4845 241.229L266.485 239.251M34.4845 243.208L266.485 241.229M34.4845 245.186L266.485 243.208M34.4845 247.164L266.485 245.186M34.4845 249.143L266.485 247.164M34.4845 251.121L266.485 249.143M34.4845 253.1L266.485 251.121M34.4845 255.078L266.485 253.1M34.4845 257.057L266.485 255.078M34.4845 259.035L266.485 257.057M34.4845 261.013L266.485 259.035M34.4845 262.992L266.485 261.013M34.4845 264.97L266.485 262.992M34.4845 266.949L266.485 264.97M34.4845 268.927L266.485 266.949M34.4845 270.905L266.485 268.927M34.4845 272.884L266.485 270.905M34.4845 274.862L266.485 272.884M34.4845 276.841L266.485 274.862M34.4845 278.819L266.485 276.841M34.4845 280.798L266.485 278.819M34.4845 282.776L266.485 280.798M34.4845 284.754L266.485 282.776M34.4845 286.733L266.485 284.754M34.4845 288.711L266.485 286.733M34.4845 290.69L266.485 288.711M34.4845 292.668L266.485 290.69M34.4845 294.646L266.485 292.668M34.4845 296.625L266.485 294.646M34.4845 298.603L266.485 296.625M34.4845 300.582L266.485 298.603M34.4845 302.56L266.485 300.582M34.4845 304.538L266.485 302.56M34.4845 306.517L266.485 304.538M34.4845 308.495L266.485 306.517M34.4845 310.474L266.485 308.495M34.4845 312.452L266.485 310.474M34.4845 314.431L266.485 312.452M34.4845 316.409L266.485 314.431M34.4845 318.387L266.485 316.409M34.4845 320.366L266.485 318.387M34.4845 322.344L266.485 320.366M34.4845 324.323L266.485 322.344M34.4845 326.301L266.485 324.323M34.4845 328.28L266.485 326.301M34.4845 330.258L266.485 328.28M35.4845 332L266.485 330.258M37.491 334L266.485 332.236M55.9845 35.9996L241.932 34.4834M52.9845 36.9996L243.936 35.9672M50.9845 38.9996L245.439 37.451M49.5169 40.9996L247.443 39.4295M47.5126 42.9996L249.448 41.4079M45.5083 44.9996L251.953 43.3863M43.504 46.9996L253.958 45.3648M41.4996 48.9996L256.463 47.3432M39.4845 50.9996L259.469 49.3216M37.491 52.9996L260.973 51.3M38.4845 336L266.485 334.215M40.4845 338L263.979 336.194M42.5018 340L261.975 338.172M43.9845 342L260.472 340.151M46.0094 344L257.966 342.129M47.9845 346L256.463 344.107M49.4845 348L254.96 346.086M51.4845 350L252.454 348.064M53.4845 352L250.45 350.043M55.9845 353.5L247.945 352.021" stroke="white" stroke-opacity="0.1"/>
<defs>
<filter id="filter0_d_1_1178" x="0.616871" y="0.500996" width="283.544" height="385.513" filterUnits="userSpaceOnUse" color-interpolation-filters="sRGB">
<feFlood flood-opacity="0" result="BackgroundImageFix"/>
<feColorMatrix in="SourceAlpha" type="matrix" values="0 0 0 0 0 0 0 0 0 0 0 0 0 0 0 0 0 0 127 0" result="hardAlpha"/>
<feOffset/>
<feGaussianBlur stdDeviation="9.10277"/>
<feComposite in2="hardAlpha" operator="out"/>
<feColorMatrix type="matrix" values="0 0 0 0 0.337255 0 0 0 0 1 0 0 0 0 0.921569 0 0 0 0.96 0"/>
<feBlend mode="normal" in2="BackgroundImageFix" result="effect1_dropShadow_1_1178"/>
<feBlend mode="normal" in="SourceGraphic" in2="effect1_dropShadow_1_1178" result="shape"/>
</filter>
<filter id="filter1_f_1_1178" x="15.1084" y="14.9941" width="254.561" height="356.526" filterUnits="userSpaceOnUse" color-interpolation-filters="sRGB">
<feFlood flood-opacity="0" result="BackgroundImageFix"/>
<feBlend mode="normal" in="SourceGraphic" in2="BackgroundImageFix" result="shape"/>
<feGaussianBlur stdDeviation="2" result="effect1_foregroundBlur_1_1178"/>
</filter>
<filter id="filter2_d_1_1178" x="87.4488" y="274.448" width="119.58" height="48.3359" filterUnits="userSpaceOnUse" color-interpolation-filters="sRGB">
<feFlood flood-opacity="0" result="BackgroundImageFix"/>
<feColorMatrix in="SourceAlpha" type="matrix" values="0 0 0 0 0 0 0 0 0 0 0 0 0 0 0 0 0 0 127 0" result="hardAlpha"/>
<feOffset dy="4"/>
<feGaussianBlur stdDeviation="9"/>
<feComposite in2="hardAlpha" operator="out"/>
<feColorMatrix type="matrix" values="0 0 0 0 0.337255 0 0 0 0 1 0 0 0 0 0.921569 0 0 0 1 0"/>
<feBlend mode="normal" in2="BackgroundImageFix" result="effect1_dropShadow_1_1178"/>
<feBlend mode="normal" in="SourceGraphic" in2="effect1_dropShadow_1_1178" result="shape"/>
</filter>
<filter id="filter3_d_1_1178" x="100.09" y="120.956" width="101.353" height="85.7207" filterUnits="userSpaceOnUse" color-interpolation-filters="sRGB">
<feFlood flood-opacity="0" result="BackgroundImageFix"/>
<feColorMatrix in="SourceAlpha" type="matrix" values="0 0 0 0 0 0 0 0 0 0 0 0 0 0 0 0 0 0 127 0" result="hardAlpha"/>
<feOffset dy="4"/>
<feGaussianBlur stdDeviation="9"/>
<feComposite in2="hardAlpha" operator="out"/>
<feColorMatrix type="matrix" values="0 0 0 0 0.337255 0 0 0 0 1 0 0 0 0 0.921569 0 0 0 0.7 0"/>
<feBlend mode="normal" in2="BackgroundImageFix" result="effect1_dropShadow_1_1178"/>
<feBlend mode="normal" in="SourceGraphic" in2="effect1_dropShadow_1_1178" result="shape"/>
</filter>
<linearGradient id="paint0_linear_1_1178" x1="168.58" y1="60.0528" x2="168.58" y2="385.325" gradientUnits="userSpaceOnUse">
<stop stop-color="#1DF2D8"/>
<stop offset="0.979167" stop-color="#1DF2D8" stop-opacity="0.25"/>
<stop offset="1" stop-color="#1DF2D8" stop-opacity="0"/>
</linearGradient>
<linearGradient id="paint1_linear_1_1178" x1="167.998" y1="40.6328" x2="167.998" y2="404.744" gradientUnits="userSpaceOnUse">
<stop stop-color="#82FFF0"/>
<stop offset="1" stop-color="#1DF2D8" stop-opacity="0"/>
</linearGradient>
</defs>
</svg>
